<?xml version="1.0" standalone="no"?>
<!DOCTYPE svg PUBLIC "-//W3C//DTD SVG 20010904//EN"
 "http://www.w3.org/TR/2001/REC-SVG-20010904/DTD/svg10.dtd">
<svg version="1.0" xmlns="http://www.w3.org/2000/svg"
 width="600.000000pt" height="600.000000pt" viewBox="0 0 600.000000 600.000000"
 preserveAspectRatio="xMidYMid meet">
<metadata>
Created by potrace 1.11, written by Peter Selinger 2001-2013
</metadata>
<g transform="translate(0.000000,600.000000) scale(0.100000,-0.100000)"
fill="#000000" stroke="none">
<path d="M3228 5380 c-38 -45 -56 -74 -52 -85 4 -9 33 -34 66 -56 67 -46 59
-47 141 30 26 25 47 51 47 57 0 13 -125 124 -138 124 -4 0 -33 -32 -64 -70z"/>
<path d="M2445 5380 c-2 -4 -18 -43 -34 -88 -35 -94 -32 -101 54 -121 28 -7
57 -14 65 -16 23 -7 99 150 82 167 -17 17 -161 67 -167 58z"/>
<path d="M2917 5315 c-32 -48 -47 -80 -43 -92 3 -10 35 -33 70 -50 l64 -32 55
64 c60 70 63 90 19 116 -15 8 -47 27 -72 42 l-45 26 -48 -74z"/>
<path d="M2624 5207 c-49 -96 -43 -116 43 -140 33 -10 62 -17 65 -17 3 0 25
29 48 65 63 96 60 101 -101 160 -13 5 -26 -12 -55 -68z"/>
<path d="M3401 5224 c-79 -73 -81 -95 -11 -147 27 -20 53 -37 58 -37 4 0 36
20 70 45 80 58 80 73 2 143 l-59 52 -60 -56z"/>
<path d="M3713 5223 c-40 -31 -73 -63 -73 -72 1 -15 92 -121 105 -121 4 0 38
19 76 41 44 26 69 48 69 59 0 13 -84 131 -103 146 -1 1 -35 -23 -74 -53z"/>
<path d="M1927 5254 c-11 -37 -19 -152 -12 -173 6 -19 14 -21 85 -21 l79 0 11
43 c6 23 16 59 21 81 6 21 8 44 6 51 -3 7 -33 15 -69 19 -34 4 -75 10 -89 13
-20 4 -28 1 -32 -13z"/>
<path d="M3101 5181 c-49 -56 -61 -90 -43 -117 4 -6 30 -23 58 -37 l51 -26 57
50 c78 70 76 90 -9 146 l-64 42 -50 -58z"/>
<path d="M2165 5206 c-12 -34 -35 -137 -35 -154 0 -31 20 -40 94 -44 l68 -3
29 74 c19 50 25 79 19 90 -11 20 -170 54 -175 37z"/>
<path d="M2816 5089 c-45 -67 -46 -70 -32 -98 14 -27 76 -61 110 -61 7 0 35
25 61 55 64 75 59 99 -29 142 l-64 32 -46 -70z"/>
<path d="M2362 5061 c-29 -75 -29 -76 -11 -102 15 -21 30 -28 75 -34 30 -4 57
-5 58 -3 2 2 19 32 39 68 32 59 34 67 22 90 -11 20 -28 28 -84 41 l-70 16 -29
-76z"/>
<path d="M3535 5044 c-54 -40 -59 -48 -57 -77 2 -23 15 -42 45 -69 l42 -37 67
37 c54 28 69 42 74 65 5 25 0 36 -42 78 -27 27 -53 49 -59 48 -5 0 -37 -20
-70 -45z"/>
<path d="M3253 5019 c-52 -49 -58 -63 -47 -104 5 -19 71 -65 93 -65 5 0 35 17
65 38 49 33 55 41 55 72 0 30 -6 40 -42 67 -23 18 -49 34 -57 37 -9 4 -36 -14
-67 -45z"/>
<path d="M3835 5027 c-89 -54 -93 -72 -33 -141 l43 -48 65 27 c78 32 90 42 90
66 0 18 -79 138 -90 138 -3 0 -36 -19 -75 -42z"/>
<path d="M1690 5028 c0 -7 -3 -46 -6 -86 -9 -103 4 -113 128 -96 l45 6 12 84
c7 47 9 89 6 94 -10 15 -185 13 -185 -2z"/>
<path d="M2556 4962 c-31 -61 -33 -69 -19 -87 8 -11 17 -25 21 -32 4 -6 30
-14 57 -18 l50 -6 38 55 c55 81 48 113 -32 141 -71 25 -77 22 -115 -53z"/>
<path d="M1912 4928 c-10 -80 -10 -84 11 -101 17 -14 34 -17 80 -13 32 2 61 6
64 9 2 3 13 38 23 78 26 99 17 109 -90 109 l-76 0 -12 -82z"/>
<path d="M2983 4953 l-50 -58 15 -37 c11 -30 24 -41 58 -54 l43 -16 53 47 c29
26 53 51 52 56 -1 5 -2 20 -2 34 -2 19 -15 32 -54 55 -29 16 -56 30 -60 30 -3
0 -28 -26 -55 -57z"/>
<path d="M4141 4966 c-97 -43 -103 -58 -55 -134 20 -31 37 -58 38 -59 1 -1 38
9 83 23 56 17 83 30 85 42 4 16 -61 162 -72 162 -3 0 -38 -15 -79 -34z"/>
<path d="M2140 4918 c-6 -24 -15 -59 -20 -78 -8 -29 -6 -38 12 -57 17 -19 32
-23 78 -23 l57 0 27 69 c26 65 26 71 11 94 -12 19 -28 26 -68 31 -85 10 -85
10 -97 -36z"/>
<path d="M2738 4855 c-21 -29 -38 -58 -38 -64 0 -5 9 -26 21 -45 15 -26 30
-37 56 -42 32 -6 39 -3 86 44 l51 51 -14 40 c-11 35 -19 42 -58 56 -25 8 -50
15 -56 15 -6 -1 -28 -25 -48 -55z"/>
<path d="M3657 4862 c-66 -36 -67 -37 -67 -77 0 -33 6 -47 33 -73 l33 -32 65
26 c75 30 75 30 82 69 4 25 -2 38 -36 77 l-42 47 -68 -37z"/>
<path d="M3380 4850 c-56 -41 -58 -45 -45 -107 3 -12 19 -32 36 -44 l31 -22
69 34 c67 32 69 34 69 70 0 32 -6 43 -44 73 -23 20 -47 36 -52 36 -5 0 -34
-19 -64 -40z"/>
<path d="M2347 4847 c-43 -102 -43 -104 -12 -137 23 -24 37 -30 71 -30 42 0
43 1 78 62 l35 63 -19 30 c-19 30 -47 42 -107 44 -28 1 -35 -4 -46 -32z"/>
<path d="M4429 4854 c-53 -17 -78 -30 -82 -42 -3 -15 42 -134 56 -149 6 -6
162 28 171 37 9 9 -8 86 -33 153 -12 32 -14 32 -112 1z"/>
<path d="M3934 4829 c-66 -29 -72 -33 -77 -66 -5 -30 -1 -42 26 -74 36 -43 39
-44 122 -21 52 15 60 21 68 48 8 27 4 39 -27 88 -20 31 -37 56 -38 56 -2 -1
-35 -15 -74 -31z"/>
<path d="M3127 4803 l-54 -47 15 -48 c13 -40 21 -50 49 -59 31 -10 38 -8 93
28 37 23 58 43 55 51 -3 8 -5 26 -5 42 0 23 -8 33 -44 54 -25 14 -47 26 -50
26 -2 0 -29 -21 -59 -47z"/>
<path d="M1546 4797 l-59 -10 7 -66 c3 -36 6 -75 6 -87 0 -36 43 -47 110 -28
l58 16 6 45 c19 143 9 154 -128 130z"/>
<path d="M1335 4777 c-44 -10 -82 -20 -84 -22 -2 -3 4 -43 14 -90 23 -108 30
-113 121 -80 l69 24 -2 38 c-6 92 -15 142 -26 145 -7 3 -48 -4 -92 -15z"/>
<path d="M1758 4793 l-38 -4 0 -83 c0 -80 1 -85 27 -101 23 -15 33 -16 79 -6
29 7 54 18 57 25 3 7 8 43 12 80 10 94 -4 103 -137 89z"/>
<path d="M2518 4719 l-36 -63 31 -38 c17 -21 38 -38 48 -38 9 0 24 -2 32 -5
21 -9 100 100 93 128 -12 43 -39 67 -87 73 l-46 6 -35 -63z"/>
<path d="M4216 4751 c-70 -23 -81 -30 -87 -54 -6 -20 -1 -39 18 -72 13 -25 29
-47 34 -51 5 -3 43 0 84 7 98 17 106 34 61 130 l-31 66 -79 -26z"/>
<path d="M1993 4763 c-47 -5 -50 -9 -59 -97 -6 -62 -6 -63 25 -85 25 -18 39
-21 76 -16 48 8 45 3 80 135 6 20 -40 70 -62 68 -10 -1 -37 -3 -60 -5z"/>
<path d="M2895 4720 l-49 -49 24 -50 c18 -39 30 -52 52 -56 24 -6 37 0 83 39
l54 46 -16 45 c-12 36 -22 49 -50 60 -20 8 -38 15 -42 15 -4 0 -29 -22 -56
-50z"/>
<path d="M2145 4653 c-9 -32 -18 -65 -21 -74 -3 -11 9 -27 33 -46 30 -24 45
-29 73 -26 31 4 37 10 57 56 36 83 36 82 8 116 -24 28 -33 31 -80 31 l-54 0
-16 -57z"/>
<path d="M3492 4677 l-64 -32 4 -52 c4 -40 10 -57 28 -71 23 -19 26 -19 75 -2
27 10 57 21 67 25 11 4 17 21 20 51 3 40 0 48 -32 78 l-35 34 -63 -31z"/>
<path d="M3745 4670 l-70 -28 -3 -49 c-2 -41 1 -52 23 -73 l25 -24 75 18 c65
15 75 21 75 39 0 12 3 31 5 42 4 13 -6 34 -28 61 l-33 41 -69 -27z"/>
<path d="M3255 4645 c-27 -19 -53 -36 -58 -38 -5 -1 -2 -28 7 -58 23 -78 43
-85 121 -47 33 17 61 32 63 33 2 1 0 25 -3 52 -6 41 -12 52 -41 71 -18 12 -35
22 -36 21 -2 0 -25 -16 -53 -34z"/>
<path d="M2682 4604 l-43 -55 33 -42 c56 -72 56 -72 128 -7 l54 49 -22 46
c-21 44 -51 65 -90 65 -9 0 -36 -25 -60 -56z"/>
<path d="M4003 4626 c-72 -20 -73 -21 -81 -61 -7 -35 -5 -45 17 -77 24 -35 29
-37 66 -31 102 14 108 17 120 53 11 31 9 39 -18 85 -16 27 -30 50 -31 51 0 0
-34 -9 -73 -20z"/>
<path d="M4493 4632 c-104 -19 -114 -34 -81 -124 l22 -60 78 4 c111 7 116 13
88 117 -12 44 -23 80 -24 80 0 -1 -38 -8 -83 -17z"/>
<path d="M2336 4574 c-35 -77 -36 -75 11 -117 55 -50 77 -44 125 33 l37 58
-32 41 c-28 37 -36 41 -73 41 -42 0 -43 -1 -68 -56z"/>
<path d="M3028 4573 l-57 -45 30 -59 c16 -33 36 -59 43 -59 8 0 41 16 74 35
l59 36 -15 53 c-12 43 -21 56 -46 68 -31 15 -32 15 -88 -29z"/>
<path d="M1625 4559 c-66 -17 -61 -6 -57 -122 2 -50 4 -54 37 -70 32 -15 37
-15 85 5 l50 21 0 76 c0 72 -1 77 -28 91 -24 14 -33 14 -87 -1z"/>
<path d="M1395 4538 c-33 -11 -61 -21 -62 -22 -1 -1 6 -37 16 -81 15 -68 21
-82 43 -93 23 -11 34 -9 83 13 l57 25 -8 77 c-10 109 -23 117 -129 81z"/>
<path d="M1818 4548 l-38 -10 0 -77 0 -78 39 -18 c33 -14 45 -15 75 -5 24 7
38 19 41 33 26 124 26 120 -3 144 -29 24 -56 27 -114 11z"/>
<path d="M4251 4536 c-61 -10 -65 -13 -76 -46 -11 -31 -10 -40 10 -80 l23 -45
76 3 c72 3 77 5 91 32 13 25 12 34 -8 89 -14 39 -27 61 -37 60 -8 -1 -44 -7
-79 -13z"/>
<path d="M2040 4516 l-45 -11 -11 -70 c-7 -38 -11 -70 -10 -71 101 -68 135
-62 165 29 12 33 21 64 21 68 0 4 -17 21 -37 37 -36 28 -40 28 -83 18z"/>
<path d="M2505 4469 l-37 -61 43 -44 c24 -24 49 -44 56 -44 13 0 61 48 91 92
12 17 10 24 -14 59 -55 80 -89 79 -139 -2z"/>
<path d="M1175 4491 c-38 -16 -70 -32 -69 -35 0 -4 11 -41 25 -83 31 -99 45
-106 127 -64 34 17 62 35 62 40 0 28 -35 157 -44 163 -16 11 -25 10 -101 -21z"/>
<path d="M2826 4471 l-48 -49 41 -56 42 -57 60 42 c32 23 59 45 59 48 0 3 -10
29 -22 58 -19 48 -37 62 -73 63 -6 0 -32 -22 -59 -49z"/>
<path d="M3557 4487 l-58 -21 6 -61 c4 -33 9 -63 12 -67 6 -11 41 -10 105 3
l56 11 5 52 c4 45 2 54 -21 79 -30 32 -30 32 -105 4z"/>
<path d="M3345 4468 c-33 -17 -61 -32 -63 -33 -5 -5 26 -117 35 -126 4 -4 41
1 81 13 53 16 71 25 67 36 -3 7 -5 33 -5 57 0 36 -5 47 -28 63 l-27 20 -60
-30z"/>
<path d="M3788 4473 l-56 -15 -4 -53 c-5 -82 11 -96 101 -88 l71 6 10 36 c14
52 13 68 -12 101 -24 33 -30 34 -110 13z"/>
<path d="M4723 4463 c-78 -6 -84 -28 -46 -165 4 -15 17 -18 87 -18 55 0 87 4
94 13 7 8 8 35 2 82 -5 39 -9 76 -10 83 0 12 -13 13 -127 5z"/>
<path d="M2203 4448 c-11 -15 -43 -105 -43 -123 0 -7 23 -26 51 -44 62 -39 75
-33 114 48 l29 61 -40 34 c-41 37 -92 48 -111 24z"/>
<path d="M3134 4411 l-61 -36 28 -63 c16 -34 32 -62 37 -62 18 0 127 49 127
57 0 4 -6 33 -13 64 -18 80 -38 86 -118 40z"/>
<path d="M4023 4418 c-51 -9 -51 -9 -63 -58 -10 -42 -9 -52 5 -74 16 -24 23
-26 90 -26 l72 0 18 41 c18 39 18 41 -3 85 -24 48 -26 49 -119 32z"/>
<path d="M4458 4403 c-41 -6 -54 -49 -34 -111 15 -45 20 -50 54 -56 80 -13
121 -8 137 18 13 19 14 32 7 63 -6 21 -13 50 -16 66 -6 26 -9 27 -64 26 -31
-1 -69 -4 -84 -6z"/>
<path d="M2656 4348 l-45 -53 48 -49 c55 -54 50 -55 125 12 l38 33 -38 54
c-49 71 -68 72 -128 3z"/>
<path d="M2404 4373 c-13 -2 -31 -25 -51 -66 l-31 -63 60 -38 c33 -22 63 -35
67 -30 4 5 24 32 44 60 l36 51 -47 46 c-26 26 -50 46 -52 46 -3 -1 -14 -4 -26
-6z"/>
<path d="M2953 4328 c-32 -23 -60 -43 -62 -44 -3 -2 38 -63 76 -113 5 -7 123
51 123 60 0 19 -54 128 -65 133 -8 2 -40 -14 -72 -36z"/>
<path d="M1698 4323 c-37 -15 -38 -18 -37 -62 2 -88 10 -103 57 -119 65 -21
98 -5 106 55 13 94 9 108 -29 126 -42 20 -48 20 -97 0z"/>
<path d="M1487 4307 c-33 -14 -46 -25 -43 -36 3 -9 10 -44 17 -78 11 -60 12
-61 52 -71 35 -9 46 -8 79 11 34 19 38 25 34 51 -4 16 -6 50 -6 75 0 44 -2 48
-33 59 -41 15 -41 15 -100 -11z"/>
<path d="M4224 4322 c-31 -5 -50 -68 -35 -115 13 -39 26 -44 114 -49 45 -2 50
0 69 31 21 32 21 34 4 87 l-17 55 -57 -3 c-31 -1 -66 -4 -78 -6z"/>
<path d="M1898 4308 c-21 -7 -28 -16 -28 -37 0 -16 -3 -48 -6 -72 l-6 -44 54
-21 c76 -29 93 -20 108 62 7 35 12 67 13 71 0 11 -75 53 -93 52 -8 0 -27 -5
-42 -11z"/>
<path d="M3407 4286 c-77 -23 -74 -16 -46 -119 l10 -40 46 7 c25 3 56 6 69 6
23 0 24 3 24 68 0 96 -12 105 -103 78z"/>
<path d="M3598 4298 l-48 -10 0 -68 c0 -38 3 -70 8 -72 4 -2 39 -2 78 0 l72 4
6 60 c6 49 4 63 -10 79 -19 21 -35 22 -106 7z"/>
<path d="M1284 4266 l-61 -31 24 -77 c22 -74 25 -77 58 -84 46 -8 128 40 121
71 -2 11 -9 46 -16 77 -9 48 -15 58 -38 66 -23 8 -38 4 -88 -22z"/>
<path d="M3870 4284 c-14 -3 -44 -7 -66 -10 l-42 -5 -6 -61 c-4 -34 -3 -65 2
-70 5 -5 41 -12 80 -15 l71 -6 16 57 c15 52 15 57 -1 86 -10 16 -21 29 -24 29
-3 -1 -16 -3 -30 -5z"/>
<path d="M2094 4270 c-17 -6 -24 -23 -34 -75 -7 -36 -11 -68 -8 -70 2 -2 29
-16 60 -29 43 -19 59 -22 65 -13 11 14 53 116 53 127 0 10 -93 70 -106 69 -5
0 -19 -4 -30 -9z"/>
<path d="M2521 4211 c-22 -33 -41 -62 -41 -65 0 -3 25 -22 55 -43 l56 -36 44
43 c25 24 45 49 45 55 0 14 -92 105 -106 105 -6 0 -30 -27 -53 -59z"/>
<path d="M2789 4211 l-54 -49 49 -50 49 -50 48 30 c27 16 51 34 54 39 6 10
-71 129 -83 129 -5 0 -33 -22 -63 -49z"/>
<path d="M3215 4239 c-27 -11 -54 -24 -59 -29 -4 -4 4 -35 19 -69 23 -51 31
-60 49 -56 11 3 39 9 61 13 39 8 40 10 38 46 -2 20 -7 55 -13 77 -12 45 -22
47 -95 18z"/>
<path d="M4904 4249 c-6 -8 -9 -45 -6 -91 l4 -77 72 -11 c119 -19 110 -21 118
35 3 28 7 71 7 98 1 47 1 47 -33 47 -18 0 -60 3 -92 6 -44 5 -62 3 -70 -7z"/>
<path d="M4658 4216 c-15 -21 -16 -32 -7 -84 l11 -60 62 -11 c120 -21 126 -17
126 90 l0 76 -61 7 c-97 10 -112 7 -131 -18z"/>
<path d="M1064 4192 l-60 -37 35 -77 c47 -105 57 -106 183 -17 9 6 -28 136
-44 157 -17 20 -50 13 -114 -26z"/>
<path d="M3968 4163 c-21 -75 -12 -90 62 -98 30 -4 62 -9 71 -11 12 -3 22 10
38 45 20 48 20 51 4 86 l-17 35 -71 0 -72 0 -15 -57z"/>
<path d="M2272 4197 c-13 -15 -55 -127 -50 -132 6 -6 121 -55 123 -53 13 15
65 108 65 115 0 11 -103 83 -119 83 -5 0 -13 -6 -19 -13z"/>
<path d="M4419 4163 c-15 -23 -18 -41 -14 -66 10 -52 18 -58 91 -73 l69 -15
23 27 c20 23 22 33 16 83 -3 31 -9 59 -13 62 -3 4 -39 9 -79 11 l-73 4 -20
-33z"/>
<path d="M3038 4159 c-32 -16 -58 -34 -58 -39 0 -16 71 -110 82 -110 29 0 90
26 98 41 11 19 -37 138 -55 138 -5 0 -36 -13 -67 -30z"/>
<path d="M857 4094 c-38 -25 -67 -48 -65 -52 2 -4 23 -40 48 -80 32 -50 51
-72 65 -72 11 0 44 22 73 48 l54 47 -35 78 c-26 55 -41 77 -54 77 -10 0 -49
-21 -86 -46z"/>
<path d="M2662 4084 c-23 -25 -42 -52 -42 -59 0 -12 47 -49 96 -78 15 -8 77
38 87 65 6 18 -1 31 -40 70 -26 26 -50 48 -54 48 -3 0 -25 -21 -47 -46z"/>
<path d="M4180 4081 c-29 -62 -17 -96 38 -110 94 -26 96 -25 126 13 22 29 26
42 20 70 -10 54 -22 63 -95 69 l-67 5 -22 -47z"/>
<path d="M1612 4088 c-32 -20 -34 -23 -28 -67 14 -102 12 -99 68 -106 34 -5
58 -3 74 6 22 11 24 19 24 84 l0 72 -43 17 c-54 20 -55 20 -95 -6z"/>
<path d="M1811 4096 c-23 -13 -24 -19 -22 -82 1 -38 4 -71 6 -73 10 -10 114
-28 124 -21 10 5 30 102 31 145 0 9 -86 45 -106 45 -5 -1 -20 -7 -33 -14z"/>
<path d="M2425 4069 c-31 -49 -50 -88 -44 -93 2 -2 30 -15 63 -29 l59 -24 33
37 c48 52 44 70 -21 114 -30 20 -57 36 -60 36 -2 0 -16 -18 -30 -41z"/>
<path d="M3436 4099 c-32 -5 -61 -11 -63 -13 -5 -5 17 -109 26 -124 7 -12 102
-19 119 -8 13 8 16 94 6 134 -4 12 -11 21 -18 21 -6 -1 -38 -5 -70 -10z"/>
<path d="M3564 4038 c3 -39 8 -73 9 -74 1 0 32 -4 68 -8 l66 -6 7 52 c3 29 6
65 6 81 l0 27 -81 0 -82 0 7 -72z"/>
<path d="M2898 4058 c-60 -37 -62 -60 -9 -112 38 -37 40 -38 75 -26 21 7 42
23 50 38 13 24 11 30 -23 79 -20 29 -38 52 -41 52 -3 0 -26 -14 -52 -31z"/>
<path d="M3756 4026 c-4 -36 -5 -69 -2 -74 3 -5 25 -12 48 -16 24 -4 53 -9 64
-12 19 -5 24 2 43 56 22 67 17 100 -17 100 -9 1 -42 3 -73 6 l-56 6 -7 -66z"/>
<path d="M1412 4056 c-18 -13 -35 -26 -39 -29 -3 -3 4 -37 16 -75 l21 -70 46
-7 c40 -6 50 -3 73 17 14 13 27 24 29 24 1 1 -3 33 -9 72 -11 66 -14 72 -42
82 -42 14 -58 12 -95 -14z"/>
<path d="M2002 4071 c-11 -7 -38 -139 -30 -146 2 -2 33 -9 69 -17 l66 -15 17
56 c10 31 19 63 22 72 3 12 -10 22 -52 38 -61 23 -73 25 -92 12z"/>
<path d="M3266 4057 c-70 -17 -77 -34 -43 -102 27 -55 29 -56 65 -54 20 1 46
11 58 21 19 17 20 20 5 83 -9 36 -20 64 -26 64 -5 -1 -32 -6 -59 -12z"/>
<path d="M4874 4019 c-11 -12 -14 -34 -12 -84 l3 -68 77 -22 c100 -29 107 -25
117 80 4 44 7 81 7 82 -1 1 -41 8 -89 16 -80 12 -88 12 -103 -4z"/>
<path d="M1210 3992 c-56 -39 -55 -36 -14 -127 23 -49 27 -53 63 -57 33 -3 45
2 76 30 l36 33 -24 72 c-21 65 -26 72 -55 78 -26 5 -41 0 -82 -29z"/>
<path d="M2185 4018 c-3 -7 -13 -41 -24 -76 l-19 -62 27 -6 c14 -3 42 -10 61
-15 19 -5 40 -9 46 -9 11 0 54 91 54 115 0 6 -29 23 -65 38 -76 31 -74 31 -80
15z"/>
<path d="M3968 4024 c-16 -28 -39 -117 -32 -124 5 -4 38 -17 74 -28 l65 -20
28 55 c25 49 27 59 17 84 -9 20 -20 29 -35 29 -12 0 -42 3 -67 6 -25 4 -48 2
-50 -2z"/>
<path d="M4630 3999 c-19 -25 -21 -39 -16 -77 7 -53 10 -55 93 -78 60 -16 64
-16 83 1 18 16 20 29 18 89 l-3 71 -45 7 c-25 4 -59 10 -77 13 -27 5 -34 1
-53 -26z"/>
<path d="M3108 3982 c-38 -12 -48 -21 -53 -43 -9 -41 46 -109 88 -109 27 0 66
31 67 55 0 14 -44 115 -50 114 -3 -1 -26 -8 -52 -17z"/>
<path d="M4386 3960 c-21 -32 -25 -48 -20 -74 5 -31 12 -36 72 -59 l67 -25 33
32 c32 31 33 35 26 84 l-6 51 -57 11 c-31 6 -63 13 -72 16 -10 3 -25 -10 -43
-36z"/>
<path d="M2567 3938 c-47 -56 -40 -84 30 -111 47 -18 53 -18 76 -3 14 10 27
31 31 49 7 34 -6 50 -73 90 l-29 17 -35 -42z"/>
<path d="M2783 3933 c-17 -16 -34 -41 -37 -58 -6 -28 -3 -32 48 -58 65 -34 88
-27 107 30 12 37 12 37 -32 75 -24 21 -46 38 -49 38 -3 0 -20 -12 -37 -27z"/>
<path d="M1005 3896 l-50 -44 19 -34 c58 -99 65 -108 97 -108 22 0 42 11 71
40 l41 40 -33 75 c-31 70 -35 75 -64 75 -22 0 -45 -13 -81 -44z"/>
<path d="M2343 3885 c-35 -70 -27 -85 50 -101 l57 -11 26 34 c38 50 28 77 -42
108 -31 14 -58 25 -60 25 -2 0 -16 -25 -31 -55z"/>
<path d="M4145 3891 c-38 -76 -35 -84 42 -114 74 -29 78 -28 114 29 16 26 19
44 15 68 -6 32 -11 35 -59 46 -29 6 -60 14 -69 16 -13 4 -24 -8 -43 -45z"/>
<path d="M3553 3918 c-6 -7 -8 -41 -5 -75 l4 -61 45 -11 c52 -13 83 -7 84 17
0 9 4 41 8 69 l7 53 -35 5 c-20 3 -50 8 -67 11 -19 2 -35 -1 -41 -8z"/>
<path d="M3380 3895 c-9 -11 -10 -25 -1 -62 16 -65 22 -73 62 -79 24 -3 41 1
56 13 20 16 21 24 16 81 l-6 62 -57 0 c-39 0 -62 -5 -70 -15z"/>
<path d="M3723 3840 l-9 -69 59 -22 c33 -13 62 -18 66 -13 11 12 52 136 46
142 -4 5 -122 31 -141 32 -6 0 -15 -30 -21 -70z"/>
<path d="M1758 3881 c-19 -16 -20 -24 -13 -89 l7 -72 74 0 75 0 -3 77 -3 77
-58 12 c-51 10 -61 9 -79 -5z"/>
<path d="M2983 3884 c-22 -9 -38 -26 -48 -51 -8 -20 -14 -37 -13 -38 2 0 22
-16 44 -33 23 -18 49 -32 58 -32 8 0 26 16 40 37 27 40 26 46 -21 99 -27 31
-29 31 -60 18z"/>
<path d="M1563 3855 c-28 -22 -31 -29 -23 -53 5 -15 14 -46 20 -70 l11 -43 61
3 c76 4 83 13 74 101 l-7 66 -50 10 c-28 6 -51 11 -52 11 -1 0 -16 -12 -34
-25z"/>
<path d="M1945 3868 c-2 -7 -6 -43 -8 -80 l-5 -68 72 0 73 0 12 66 c6 37 11
67 9 68 -7 5 -111 26 -129 26 -11 0 -21 -6 -24 -12z"/>
<path d="M3263 3862 c-12 -2 -29 -15 -38 -29 -16 -24 -16 -27 7 -70 31 -61 59
-71 103 -36 l33 26 -15 51 c-22 73 -16 69 -90 58z"/>
<path d="M3902 3792 c-12 -36 -20 -67 -19 -68 1 -1 30 -16 64 -33 l63 -31 30
60 c46 90 46 90 -67 123 l-50 15 -21 -66z"/>
<path d="M2136 3819 c-19 -82 -24 -114 -20 -121 3 -4 36 -8 73 -8 l68 0 17 44
c21 55 11 81 -36 89 -18 3 -47 9 -65 13 -28 5 -33 3 -37 -17z"/>
<path d="M814 3779 c-30 -29 -54 -55 -54 -58 0 -4 23 -34 50 -69 65 -79 86
-81 148 -12 l43 48 -43 71 c-54 89 -68 91 -144 20z"/>
<path d="M1366 3800 l-35 -31 29 -67 28 -67 50 -1 c41 -2 55 3 73 22 l22 23
-18 70 c-17 63 -21 70 -48 75 -51 10 -65 7 -101 -24z"/>
<path d="M4577 3802 c-21 -22 -27 -38 -27 -73 l0 -45 69 -31 69 -30 31 24 c28
22 31 29 31 82 l0 57 -68 22 c-38 12 -71 22 -73 22 -3 0 -17 -13 -32 -28z"/>
<path d="M2506 3783 c-20 -28 -22 -41 -15 -65 11 -40 8 -38 67 -45 65 -7 82 5
82 62 0 42 0 42 -55 63 l-56 20 -23 -35z"/>
<path d="M2701 3796 c-17 -18 -22 -33 -19 -67 l3 -43 54 -13 c29 -8 55 -12 57
-10 2 2 10 24 18 50 15 51 15 51 -60 90 -30 15 -32 15 -53 -7z"/>
<path d="M4823 3801 c-19 -16 -23 -29 -23 -78 l0 -58 70 -29 c65 -26 72 -27
94 -13 18 12 25 28 31 73 4 31 9 63 12 70 3 8 -15 18 -51 28 -92 27 -109 28
-133 7z"/>
<path d="M4331 3772 c-18 -24 -31 -51 -31 -69 0 -25 7 -32 66 -61 l67 -33 33
32 c29 28 34 40 34 79 l0 46 -57 18 c-32 10 -63 21 -69 23 -6 2 -25 -14 -43
-35z"/>
<path d="M3096 3749 l-28 -41 38 -39 c21 -22 43 -39 49 -39 5 0 26 15 44 32
l35 31 -26 46 c-20 37 -31 47 -55 49 -25 3 -34 -3 -57 -39z"/>
<path d="M5061 3771 c-6 -10 -13 -47 -16 -82 l-7 -64 79 -31 c43 -17 83 -30
89 -27 11 4 59 171 52 179 -6 6 -153 44 -170 44 -9 0 -22 -8 -27 -19z"/>
<path d="M2879 3763 c-10 -2 -23 -25 -31 -56 l-15 -52 50 -22 c27 -13 51 -23
53 -23 6 0 57 91 53 95 -18 17 -83 65 -88 64 -3 -1 -13 -3 -22 -6z"/>
<path d="M4076 3704 l-34 -64 66 -36 65 -37 33 39 c34 39 49 73 42 94 -2 6
-34 24 -71 40 l-67 28 -34 -64z"/>
<path d="M1178 3721 c-21 -20 -38 -41 -38 -46 1 -6 17 -37 38 -70 37 -59 37
-60 79 -57 35 3 48 9 68 36 l26 34 -27 65 c-23 56 -31 66 -57 71 -44 9 -49 7
-89 -33z"/>
<path d="M2306 3716 c-16 -42 -16 -46 0 -70 14 -23 23 -26 70 -26 46 0 56 4
69 24 11 17 14 35 10 60 -7 32 -11 36 -56 45 -73 16 -75 15 -93 -33z"/>
<path d="M3516 3731 c-24 -14 -25 -19 -20 -71 8 -65 25 -84 73 -76 47 7 53 16
55 82 l1 56 -41 13 c-35 10 -46 10 -68 -4z"/>
<path d="M3672 3718 c-6 -7 -12 -38 -13 -68 -3 -54 -2 -55 32 -74 58 -31 83
-18 103 55 10 33 16 62 14 63 -11 8 -96 36 -110 36 -8 0 -20 -6 -26 -12z"/>
<path d="M3356 3697 l-30 -24 18 -49 c10 -27 22 -53 26 -58 5 -4 29 0 55 10
l47 18 -6 55 c-4 30 -8 57 -10 58 -2 2 -19 6 -37 9 -26 4 -41 -1 -63 -19z"/>
<path d="M630 3635 l-64 -65 64 -65 c35 -36 72 -65 82 -65 21 0 111 108 104
126 -9 24 -101 134 -111 134 -6 0 -40 -29 -75 -65z"/>
<path d="M1930 3606 l0 -79 61 7 c33 4 66 9 73 12 14 5 28 98 19 121 -3 7 -34
13 -79 15 l-74 3 0 -79z"/>
<path d="M2993 3641 c-35 -54 -33 -62 20 -95 28 -17 29 -17 65 11 19 15 41 31
46 35 12 8 -70 98 -89 98 -5 0 -24 -22 -42 -49z"/>
<path d="M3840 3666 c-13 -35 -32 -108 -28 -110 2 -2 19 -15 39 -29 54 -40 69
-36 104 30 17 31 32 60 33 65 3 6 -118 68 -134 68 -3 0 -9 -11 -14 -24z"/>
<path d="M1735 3657 c-6 -22 16 -143 25 -141 3 0 33 4 68 8 l62 7 0 74 0 75
-75 0 c-69 0 -75 -2 -80 -23z"/>
<path d="M3213 3632 l-42 -37 21 -25 c11 -14 26 -33 33 -43 11 -16 15 -16 63
4 l51 21 -20 51 c-31 79 -45 83 -106 29z"/>
<path d="M993 3608 l-46 -47 26 -38 c63 -90 70 -95 109 -88 26 5 43 17 65 48
l30 40 -39 66 c-33 57 -42 65 -68 66 -23 1 -41 -10 -77 -47z"/>
<path d="M2124 3645 c-1 -5 -4 -31 -7 -57 -6 -68 13 -84 87 -68 49 10 56 14
66 44 8 25 8 40 -1 59 -10 23 -18 26 -77 29 -37 2 -66 -1 -68 -7z"/>
<path d="M2650 3645 c-9 -10 -10 -32 -5 -70 l6 -55 50 0 c53 0 58 4 73 77 7
31 7 31 -47 47 -67 19 -62 19 -77 1z"/>
<path d="M1551 3626 l-22 -23 24 -64 24 -64 53 3 c64 3 93 17 86 40 -2 9 -10
43 -16 75 l-11 57 -58 0 c-47 0 -61 -4 -80 -24z"/>
<path d="M2481 3623 c-9 -22 -9 -37 2 -68 l14 -40 49 4 c27 1 52 5 57 8 4 2 7
29 7 59 0 53 -1 54 -29 54 -16 0 -42 3 -58 6 -26 5 -31 2 -42 -23z"/>
<path d="M4247 3592 c-20 -27 -37 -55 -37 -63 0 -8 27 -33 58 -55 l58 -41 42
39 c33 30 42 46 42 71 0 30 -5 36 -57 62 -32 16 -60 31 -63 32 -3 2 -22 -19
-43 -45z"/>
<path d="M4492 3607 c-21 -22 -32 -43 -32 -63 0 -25 9 -35 61 -67 53 -33 65
-37 83 -27 46 25 55 38 61 86 l7 50 -63 27 c-35 15 -69 27 -75 27 -5 0 -24
-15 -42 -33z"/>
<path d="M4753 3607 c-15 -11 -29 -21 -29 -21 -1 -1 -5 -24 -8 -51 l-7 -50 65
-38 c63 -37 66 -38 95 -23 23 13 31 26 40 66 6 28 11 57 11 64 0 7 -31 27 -70
44 l-69 31 -28 -22z"/>
<path d="M2796 3569 c-14 -49 -14 -55 1 -71 9 -10 30 -18 48 -18 27 0 37 7 59
40 14 22 26 44 26 50 0 10 -53 35 -96 46 -19 5 -24 -1 -38 -47z"/>
<path d="M3991 3547 l-34 -61 49 -43 c27 -23 52 -43 55 -43 3 0 27 27 53 60
54 68 54 66 -40 119 l-50 29 -33 -61z"/>
<path d="M1365 3554 l-26 -34 22 -42 c44 -87 43 -86 103 -75 76 14 85 33 53
117 l-24 65 -51 1 c-47 1 -54 -1 -77 -32z"/>
<path d="M2310 3555 c-10 -31 -9 -40 9 -69 l21 -34 60 15 c65 17 67 21 48 84
l-11 39 -58 0 c-57 0 -58 0 -69 -35z"/>
<path d="M3105 3542 c-32 -29 -40 -43 -37 -65 5 -39 34 -52 88 -37 25 7 47 17
50 22 10 15 -5 51 -34 85 l-27 32 -40 -37z"/>
<path d="M4989 3567 c-13 -10 -39 -93 -39 -127 0 -4 31 -26 68 -48 89 -51 104
-46 131 44 12 36 21 71 21 78 0 10 -132 67 -155 66 -5 0 -17 -6 -26 -13z"/>
<path d="M3438 3543 c-42 -17 -43 -23 -27 -89 9 -33 16 -44 26 -40 8 3 32 6
54 6 l39 0 0 60 c0 48 -4 61 -19 70 -25 13 -28 12 -73 -7z"/>
<path d="M3588 3548 c-26 -9 -28 -14 -28 -68 0 -71 11 -82 70 -72 40 7 44 10
56 52 18 61 18 63 -17 83 -34 19 -42 20 -81 5z"/>
<path d="M2925 3504 c-27 -35 -27 -37 -11 -70 19 -41 34 -42 87 -8 27 17 39
30 35 40 -3 9 -6 20 -6 25 0 9 -58 49 -71 49 -4 0 -19 -16 -34 -36z"/>
<path d="M816 3469 l-49 -61 59 -59 c53 -53 63 -59 89 -53 22 4 38 18 58 52
15 26 28 52 28 57 -1 6 -20 36 -43 67 -58 78 -77 77 -142 -3z"/>
<path d="M3760 3520 c-19 -4 -27 -17 -41 -62 -16 -56 -16 -57 5 -77 14 -13 36
-21 57 -21 32 0 37 5 59 48 14 26 26 50 27 53 2 3 -16 19 -39 35 -31 22 -50
29 -68 24z"/>
<path d="M3294 3501 c-50 -23 -58 -42 -36 -81 15 -27 22 -30 69 -30 28 0 54 4
57 9 3 5 1 34 -5 65 -13 63 -20 66 -85 37z"/>
<path d="M1997 3500 c-20 -4 -40 -9 -43 -12 -11 -11 11 -121 26 -130 10 -7 33
-3 73 12 l57 21 0 48 c0 70 -17 80 -113 61z"/>
<path d="M1191 3458 c-17 -23 -31 -45 -31 -48 0 -5 70 -103 82 -116 2 -1 24 2
49 7 35 8 49 17 63 41 l19 31 -34 63 c-33 63 -35 64 -76 64 -37 0 -44 -4 -72
-42z"/>
<path d="M2203 3488 l-53 -10 0 -47 c0 -36 5 -52 23 -68 l22 -21 52 23 c62 28
73 52 43 100 -12 19 -25 34 -28 34 -4 -1 -31 -6 -59 -11z"/>
<path d="M2561 3489 c-29 -4 -57 -11 -62 -16 -9 -9 19 -95 38 -114 7 -7 23 -5
52 7 41 16 41 16 41 69 0 30 -3 56 -7 58 -5 2 -32 0 -62 -4z"/>
<path d="M1800 3483 c-19 -3 -39 -8 -43 -12 -10 -10 30 -151 41 -151 5 0 36 9
70 21 48 16 62 25 58 38 -2 9 -7 37 -11 64 -6 47 -6 47 -43 45 -20 0 -53 -3
-72 -5z"/>
<path d="M2650 3436 c0 -50 2 -54 29 -66 46 -19 64 -10 83 44 24 63 14 76 -58
76 l-54 0 0 -54z"/>
<path d="M4141 3433 l-44 -55 51 -51 51 -51 48 41 c69 58 68 79 -4 130 l-58
40 -44 -54z"/>
<path d="M4403 3442 c-59 -52 -58 -69 5 -125 31 -28 58 -45 65 -40 83 48 87
53 87 91 0 31 -6 40 -33 58 -17 11 -43 28 -57 37 -25 16 -27 15 -67 -21z"/>
<path d="M1647 3436 c-83 -15 -92 -32 -60 -104 13 -31 28 -61 33 -66 5 -5 36
1 73 14 l64 23 -20 66 c-11 36 -22 69 -26 72 -3 3 -32 1 -64 -5z"/>
<path d="M2396 3436 c-58 -18 -65 -43 -26 -99 l33 -45 47 29 48 29 -16 50
c-17 54 -21 56 -86 36z"/>
<path d="M2791 3413 c-8 -21 -16 -43 -18 -48 -2 -6 12 -19 31 -29 l34 -18 36
27 c20 15 36 29 36 31 0 1 -9 19 -21 38 -17 29 -27 36 -53 36 -28 0 -34 -5
-45 -37z"/>
<path d="M3873 3396 l-26 -55 27 -35 c38 -51 63 -47 116 15 23 27 41 52 39 53
-43 40 -95 76 -110 76 -13 0 -27 -17 -46 -54z"/>
<path d="M4648 3417 c-24 -21 -38 -43 -40 -64 -4 -30 1 -37 53 -78 l58 -45 35
17 c27 13 39 26 45 52 19 72 19 72 -44 112 -33 21 -62 38 -65 38 -3 0 -21 -14
-42 -32z"/>
<path d="M3160 3416 c-33 -12 -35 -16 -35 -57 l0 -44 51 -3 c49 -3 52 -1 64
27 10 25 9 34 -6 60 -20 34 -24 35 -74 17z"/>
<path d="M3015 3404 c-11 -8 -26 -19 -34 -23 -12 -7 -10 -15 9 -45 21 -34 25
-37 64 -34 l41 3 -3 44 c-4 69 -33 89 -77 55z"/>
<path d="M1082 3381 c-24 -4 -40 -17 -62 -51 -17 -25 -30 -49 -30 -55 0 -5 23
-33 51 -61 49 -50 52 -51 88 -42 31 8 42 18 59 53 l21 43 -46 61 c-25 34 -46
60 -46 60 -1 -1 -17 -4 -35 -8z"/>
<path d="M3443 3383 c-18 -3 -23 -11 -23 -36 0 -64 8 -73 64 -83 l53 -10 9 58
c7 38 7 61 0 68 -10 10 -60 11 -103 3z"/>
<path d="M4887 3370 c-21 -17 -39 -65 -42 -112 0 -4 27 -27 59 -51 52 -39 63
-43 87 -35 22 7 32 23 52 76 l25 67 -67 37 c-36 20 -71 37 -77 38 -6 0 -23 -9
-37 -20z"/>
<path d="M677 3338 c-18 -24 -43 -56 -54 -73 l-21 -29 67 -53 c36 -29 76 -52
87 -53 16 0 31 16 58 61 20 33 36 63 36 67 0 12 -114 122 -127 122 -6 0 -27
-19 -46 -42z"/>
<path d="M1459 3358 c-38 -8 -49 -16 -61 -41 -15 -31 -14 -33 24 -90 30 -44
44 -57 56 -52 10 4 36 14 59 22 23 8 44 21 47 29 7 18 -54 144 -69 143 -5 -1
-31 -6 -56 -11z"/>
<path d="M3329 3362 c-42 -3 -48 -6 -60 -34 -17 -40 -4 -59 51 -75 59 -17 80
0 73 60 -3 23 -8 44 -12 47 -3 3 -27 4 -52 2z"/>
<path d="M3587 3363 c-3 -5 -8 -33 -12 -64 l-7 -56 52 -10 52 -11 23 52 23 51
-21 23 c-15 16 -32 22 -63 22 -24 0 -45 -3 -47 -7z"/>
<path d="M2061 3337 l-53 -21 6 -45 c4 -30 14 -52 28 -64 24 -20 30 -19 87 18
35 21 41 30 41 59 0 26 -7 39 -27 54 -28 19 -28 19 -82 -1z"/>
<path d="M2258 3337 c-43 -19 -48 -24 -48 -53 0 -26 8 -39 35 -60 l35 -26 49
37 49 37 -31 44 c-17 24 -33 44 -36 43 -3 -1 -27 -10 -53 -22z"/>
<path d="M2891 3326 c-40 -41 -36 -59 15 -81 48 -20 51 -19 70 10 15 23 14 27
-7 65 -12 22 -28 40 -34 40 -6 0 -26 -15 -44 -34z"/>
<path d="M2597 3337 c-30 -12 -32 -27 -8 -89 9 -24 16 -28 50 -28 35 0 39 3
45 31 10 53 7 78 -13 89 -23 12 -37 11 -74 -3z"/>
<path d="M4018 3301 c-21 -27 -38 -52 -38 -56 0 -15 62 -95 73 -95 14 0 110
77 116 92 4 12 -89 108 -104 108 -5 -1 -27 -23 -47 -49z"/>
<path d="M1878 3306 c-31 -12 -60 -24 -64 -28 -6 -7 31 -114 47 -132 4 -4 34
6 66 24 32 18 59 34 60 34 9 5 -24 109 -36 115 -10 4 -39 -1 -73 -13z"/>
<path d="M2726 3321 c-4 -5 -9 -30 -12 -55 l-7 -46 51 0 c40 0 53 4 62 19 17
33 12 48 -24 70 -36 22 -61 27 -70 12z"/>
<path d="M4278 3289 c-27 -22 -48 -45 -48 -50 0 -6 21 -34 46 -64 l46 -53 53
32 c77 45 79 68 12 128 -29 26 -54 48 -57 48 -3 0 -26 -18 -52 -41z"/>
<path d="M2465 3294 c-45 -27 -45 -32 -7 -85 30 -42 60 -46 94 -11 17 17 17
21 3 70 -18 60 -30 64 -90 26z"/>
<path d="M3725 3263 c-29 -65 -21 -86 37 -101 38 -10 39 -9 73 35 19 25 35 49
35 53 0 18 -64 65 -91 66 -28 1 -33 -4 -54 -53z"/>
<path d="M5124 3302 c-10 -6 -54 -113 -54 -131 0 -16 132 -102 148 -96 10 3
34 39 55 80 l37 75 -73 40 c-72 40 -93 46 -113 32z"/>
<path d="M3119 3284 c-3 -22 4 -70 12 -91 7 -20 15 -24 41 -21 26 2 34 10 49
44 9 23 14 46 10 52 -8 13 -111 28 -112 16z"/>
<path d="M4533 3258 c-65 -45 -66 -69 -5 -131 l51 -50 44 17 c38 14 46 22 57
59 l12 42 -43 38 c-67 58 -69 58 -116 25z"/>
<path d="M3049 3272 c-29 -2 -39 -9 -52 -36 -15 -33 -15 -34 11 -53 21 -15 34
-18 60 -11 28 7 32 13 31 41 -1 52 -10 62 -50 59z"/>
<path d="M1287 3251 c-19 -4 -35 -19 -51 -46 l-22 -40 48 -57 48 -56 50 21
c72 30 79 58 31 130 -37 58 -44 62 -104 48z"/>
<path d="M1688 3238 c-45 -15 -58 -24 -58 -40 0 -22 60 -128 72 -128 5 0 33
14 63 31 61 34 60 31 24 117 -10 23 -24 42 -31 41 -7 0 -39 -10 -70 -21z"/>
<path d="M2348 3211 c-26 -20 -47 -43 -48 -52 0 -15 79 -79 98 -79 5 0 21 18
35 39 l26 39 -32 45 -32 45 -47 -37z"/>
<path d="M3405 3230 c-8 -9 -15 -30 -15 -46 0 -24 8 -34 44 -56 24 -14 48 -23
54 -19 12 7 42 84 42 106 0 6 -24 16 -55 22 -47 8 -57 7 -70 -7z"/>
<path d="M866 3181 c-20 -32 -36 -63 -35 -67 0 -5 27 -31 60 -57 56 -45 62
-48 92 -37 25 8 37 22 55 62 l22 52 -52 53 c-72 73 -95 72 -142 -6z"/>
<path d="M2842 3219 c-19 -30 -6 -78 25 -92 22 -10 27 -8 44 13 40 51 41 58
12 73 -53 27 -68 28 -81 6z"/>
<path d="M3244 3205 c-15 -37 -15 -38 12 -66 33 -35 41 -35 77 -4 36 32 37 72
2 85 -68 26 -74 25 -91 -15z"/>
<path d="M3873 3193 c-43 -55 -44 -58 -32 -93 10 -27 41 -50 68 -50 5 0 29 18
55 41 l46 41 -32 44 c-17 24 -35 44 -39 44 -4 0 -14 3 -22 6 -9 3 -26 -9 -44
-33z"/>
<path d="M2132 3189 c-29 -21 -41 -36 -38 -46 4 -8 9 -25 12 -37 3 -14 19 -27
41 -35 34 -13 36 -12 74 25 21 21 39 46 39 55 0 16 -60 69 -77 69 -4 -1 -27
-15 -51 -31z"/>
<path d="M4772 3203 c-22 -12 -35 -27 -42 -52 -14 -52 -14 -52 39 -105 43 -42
52 -47 79 -41 37 8 45 17 71 77 l20 47 -55 41 c-68 51 -72 52 -112 33z"/>
<path d="M3546 3158 c-8 -29 -14 -53 -13 -54 1 0 22 -13 47 -27 l45 -26 31 51
c39 63 32 83 -39 98 -26 5 -50 10 -52 10 -2 0 -10 -23 -19 -52z"/>
<path d="M4173 3191 c-12 -10 -36 -31 -53 -45 l-31 -26 36 -60 36 -59 62 34
c36 20 63 42 64 52 2 10 -19 42 -45 70 -47 52 -47 52 -69 34z"/>
<path d="M2591 3192 c-24 -8 -32 -41 -17 -69 31 -56 30 -56 70 -39 34 14 36
18 36 59 0 45 0 45 -39 49 -22 2 -45 2 -50 0z"/>
<path d="M2710 3147 c0 -36 4 -46 24 -56 21 -12 28 -10 55 10 34 25 35 27 21
63 -8 23 -15 26 -55 26 l-45 0 0 -43z"/>
<path d="M1965 3153 c-22 -13 -47 -28 -55 -33 -13 -7 -11 -17 12 -64 35 -70
57 -73 113 -16 37 38 38 40 27 78 -17 55 -46 65 -97 35z"/>
<path d="M2939 3142 c-30 -43 -28 -57 11 -77 47 -24 57 -19 65 30 5 40 3 48
-17 65 -13 11 -25 19 -28 19 -3 1 -17 -16 -31 -37z"/>
<path d="M1523 3148 c-42 -16 -53 -25 -58 -49 -5 -24 1 -37 36 -79 23 -27 44
-50 46 -50 8 0 69 33 95 52 l27 19 -37 61 c-21 34 -42 63 -47 64 -6 1 -33 -7
-62 -18z"/>
<path d="M3069 3149 c-22 -8 -28 -18 -31 -52 -6 -52 -3 -57 30 -57 39 0 52 12
62 56 13 58 -5 73 -61 53z"/>
<path d="M4393 3117 c-29 -17 -53 -39 -53 -47 0 -8 18 -41 41 -72 l40 -57 52
20 c29 11 52 21 53 22 1 1 6 16 11 33 10 28 8 33 -39 82 -27 29 -50 52 -51 52
-1 -1 -26 -15 -54 -33z"/>
<path d="M2458 3101 l-27 -38 40 -33 c41 -32 42 -33 75 -16 40 19 41 27 12 84
-30 56 -62 57 -100 3z"/>
<path d="M3153 3095 c-10 -45 -10 -46 18 -61 28 -14 31 -13 64 12 19 14 35 29
35 33 0 17 -59 61 -81 61 -22 0 -27 -6 -36 -45z"/>
<path d="M1132 3123 c-17 -3 -31 -20 -48 -56 l-24 -52 57 -51 57 -52 42 20
c52 26 74 79 47 113 -70 84 -77 88 -131 78z"/>
<path d="M3341 3104 l-31 -26 31 -45 c20 -29 36 -42 46 -39 8 3 20 6 27 6 10
0 46 59 46 75 0 5 -77 55 -84 55 -2 0 -18 -12 -35 -26z"/>
<path d="M3681 3082 c-17 -27 -31 -52 -31 -55 0 -3 21 -18 46 -33 l46 -27 41
41 41 41 -16 34 c-15 31 -45 47 -88 47 -4 0 -22 -22 -39 -48z"/>
<path d="M5009 3119 c-18 -7 -32 -25 -47 -62 -12 -29 -22 -55 -22 -58 0 -3 27
-29 59 -58 52 -45 63 -50 84 -42 21 8 87 108 87 131 0 6 -127 101 -133 99 -1
0 -14 -5 -28 -10z"/>
<path d="M2247 3082 c-57 -58 -49 -89 29 -116 l39 -13 28 49 c16 28 27 51 25
52 -2 1 -21 16 -44 34 l-41 31 -36 -37z"/>
<path d="M2803 3081 c-36 -30 -33 -42 18 -73 25 -16 26 -15 53 18 22 28 25 38
16 54 -6 11 -15 20 -20 20 -4 0 -14 2 -22 5 -7 2 -28 -8 -45 -24z"/>
<path d="M1778 3067 c-32 -18 -58 -38 -58 -45 0 -15 77 -122 88 -122 4 1 29
20 55 44 l48 43 -27 57 c-16 31 -33 56 -39 56 -5 -1 -36 -15 -67 -33z"/>
<path d="M3981 3060 l-44 -38 17 -46 c26 -67 40 -70 112 -29 l61 36 -34 58
c-21 35 -42 59 -52 59 -9 -1 -36 -18 -60 -40z"/>
<path d="M774 3072 c-14 -2 -31 -25 -56 -75 l-35 -72 70 -44 c91 -55 110 -51
146 33 l25 59 -39 34 c-64 54 -89 69 -111 65z"/>
<path d="M2652 3060 c-23 -11 -42 -25 -42 -33 0 -20 67 -80 82 -74 20 7 52 72
45 90 -12 31 -40 37 -85 17z"/>
<path d="M3504 3072 c-6 -4 -19 -22 -28 -40 -19 -37 -14 -52 31 -95 l30 -27
40 48 c23 27 38 53 35 59 -13 19 -97 62 -108 55z"/>
<path d="M4639 3049 c-36 -16 -49 -28 -56 -52 -8 -29 -5 -37 35 -88 l45 -56
42 10 c37 8 45 16 64 55 l22 45 -53 53 -53 53 -46 -20z"/>
<path d="M3252 3027 c-34 -35 -40 -63 -19 -90 10 -13 19 -15 51 -7 21 4 46 15
54 24 14 13 12 19 -13 56 -16 22 -31 43 -35 45 -4 2 -21 -10 -38 -28z"/>
<path d="M1370 3027 c-34 -17 -47 -30 -54 -55 -9 -32 -7 -36 42 -84 l50 -51
50 32 c68 43 70 59 15 126 -25 30 -48 55 -52 55 -3 -1 -26 -11 -51 -23z"/>
<path d="M2052 3010 l-44 -39 23 -40 c20 -36 42 -50 76 -51 7 0 26 21 43 46
40 57 35 87 -16 109 -20 8 -37 15 -38 15 0 -1 -21 -18 -44 -40z"/>
<path d="M2888 3013 c-36 -47 -28 -73 24 -73 35 0 40 3 54 35 17 42 14 50 -24
63 -24 8 -30 6 -54 -25z"/>
<path d="M2392 3028 c-5 -7 -19 -32 -31 -56 l-22 -42 28 -11 c16 -6 39 -15 52
-20 37 -15 60 -2 67 39 6 33 4 39 -31 69 -43 37 -48 39 -63 21z"/>
<path d="M4243 3002 l-61 -35 31 -64 c17 -34 37 -63 44 -63 33 0 121 42 126
60 4 15 -43 98 -77 136 0 1 -29 -14 -63 -34z"/>
<path d="M3107 3017 c-19 -6 -26 -14 -23 -25 2 -10 7 -32 11 -49 4 -18 9 -33
11 -33 3 0 25 5 50 11 44 11 45 13 38 43 -3 17 -7 31 -8 32 0 0 -12 7 -26 15
-19 12 -32 13 -53 6z"/>
<path d="M3006 3004 c-21 -20 -29 -70 -16 -93 8 -16 21 -21 50 -21 45 0 47 5
29 75 -12 47 -39 64 -63 39z"/>
<path d="M3797 2982 c-31 -31 -35 -42 -29 -65 4 -15 20 -36 36 -46 28 -19 28
-19 80 12 l53 31 -17 44 c-28 74 -67 82 -123 24z"/>
<path d="M5220 3000 c-10 -10 -31 -43 -46 -72 l-26 -52 63 -58 c35 -31 69 -57
74 -58 16 0 118 151 108 159 -20 18 -142 101 -147 101 -3 0 -15 -9 -26 -20z"/>
<path d="M2739 2974 l-22 -36 24 -24 c22 -22 27 -23 62 -12 31 10 37 16 37 40
0 21 -8 33 -32 48 -18 11 -36 20 -40 20 -3 0 -16 -16 -29 -36z"/>
<path d="M2554 2981 c-22 -13 -33 -29 -36 -50 -4 -29 -1 -33 39 -51 l44 -19
24 27 c14 15 24 32 24 37 0 9 -54 75 -61 75 -2 0 -17 -9 -34 -19z"/>
<path d="M1629 2967 c-85 -51 -87 -65 -19 -132 54 -54 46 -54 122 12 l37 32
-40 55 c-22 31 -45 56 -52 55 -7 0 -28 -11 -48 -22z"/>
<path d="M997 2967 c-35 -15 -87 -126 -65 -138 7 -4 37 -23 67 -42 54 -34 55
-35 88 -19 25 12 36 26 47 61 l14 46 -57 52 c-31 29 -58 52 -61 52 -3 0 -18
-5 -33 -12z"/>
<path d="M3598 2936 l-37 -43 40 -39 39 -38 42 31 c59 42 62 73 11 107 -21 14
-42 26 -48 26 -6 0 -27 -20 -47 -44z"/>
<path d="M3394 2960 c-32 -13 -35 -35 -15 -84 26 -59 50 -63 95 -17 l35 36
-35 38 c-36 38 -45 42 -80 27z"/>
<path d="M4871 2955 c-24 -8 -40 -23 -56 -55 l-23 -45 47 -57 c48 -59 80 -72
112 -45 17 14 69 93 69 105 0 4 -26 30 -58 58 -55 49 -58 50 -91 39z"/>
<path d="M1883 2916 l-53 -44 43 -51 c23 -28 49 -51 59 -51 9 0 33 22 53 50
l36 50 -22 40 c-13 22 -26 40 -30 40 -4 0 -13 2 -21 5 -7 2 -37 -15 -65 -39z"/>
<path d="M2178 2911 c-33 -46 -34 -53 -12 -86 13 -20 25 -25 59 -25 l44 0 21
56 c11 31 19 58 18 59 -7 7 -82 35 -92 35 -6 0 -23 -18 -38 -39z"/>
<path d="M4083 2917 c-29 -17 -53 -36 -53 -42 0 -30 32 -115 43 -115 33 0 137
43 137 56 0 20 -58 134 -68 133 -4 0 -31 -15 -59 -32z"/>
<path d="M4483 2918 c-67 -26 -71 -45 -27 -123 l34 -62 51 11 c44 10 54 17 70
49 l19 37 -41 52 c-23 29 -44 54 -48 55 -3 1 -29 -8 -58 -19z"/>
<path d="M2867 2908 c-7 -21 36 -99 51 -93 7 3 18 5 23 5 4 0 15 13 24 30 23
44 4 70 -52 70 -24 0 -43 -5 -46 -12z"/>
<path d="M1233 2887 c-28 -14 -43 -28 -47 -46 -3 -14 -8 -36 -12 -48 -5 -17 4
-28 55 -63 l61 -41 33 22 c76 52 77 86 4 150 l-52 46 -42 -20z"/>
<path d="M2653 2880 c-13 -15 -23 -39 -23 -53 0 -22 6 -27 50 -36 28 -6 52
-11 54 -11 2 0 6 19 10 41 6 35 3 46 -15 65 -29 31 -49 29 -76 -6z"/>
<path d="M3148 2897 c-38 -11 -43 -21 -32 -63 4 -15 19 -26 50 -34 25 -7 46
-11 48 -9 4 4 9 81 7 107 -1 14 -21 14 -73 -1z"/>
<path d="M3278 2903 c-26 -4 -28 -8 -28 -53 0 -53 1 -55 45 -64 22 -4 37 0 54
14 23 20 24 21 6 65 -17 46 -19 47 -77 38z"/>
<path d="M642 2881 c-11 -7 -86 -161 -80 -165 2 -1 38 -19 81 -39 60 -28 83
-34 97 -27 15 8 60 114 60 141 0 6 -73 55 -135 92 -6 3 -16 2 -23 -2z"/>
<path d="M2315 2835 c-12 -35 -16 -58 -9 -65 5 -5 34 -12 65 -16 l56 -6 6 38
c11 66 9 71 -33 88 -22 9 -46 16 -54 16 -7 0 -21 -25 -31 -55z"/>
<path d="M3902 2856 c-53 -31 -53 -31 -47 -71 3 -22 14 -48 24 -58 18 -18 20
-18 80 3 33 13 61 25 61 27 0 3 -7 29 -16 59 -21 72 -36 78 -102 40z"/>
<path d="M2793 2870 c-15 -6 -23 -18 -23 -32 0 -13 -3 -33 -6 -45 -6 -22 -3
-23 44 -23 69 0 84 19 55 69 -23 39 -36 45 -70 31z"/>
<path d="M2475 2858 c-2 -7 -6 -34 -10 -60 l-6 -46 56 -4 c50 -3 58 0 71 20 9
13 13 34 10 46 -9 38 -111 74 -121 44z"/>
<path d="M2984 2838 c-16 -32 -16 -32 17 -60 19 -15 37 -28 40 -28 3 0 15 14
28 31 17 22 21 38 16 60 -6 26 -11 29 -46 29 -33 0 -41 -4 -55 -32z"/>
<path d="M3496 2837 l-39 -33 23 -44 c12 -25 24 -47 26 -49 2 -3 26 6 53 19
64 30 69 51 24 101 -19 21 -38 39 -42 39 -3 0 -23 -15 -45 -33z"/>
<path d="M1480 2830 c-32 -21 -47 -39 -51 -60 -6 -28 -2 -34 50 -75 l57 -43
47 40 c26 22 47 47 47 57 0 14 -87 111 -100 111 -3 0 -25 -14 -50 -30z"/>
<path d="M3707 2827 c-56 -38 -61 -70 -19 -109 l27 -26 53 20 c42 17 52 25 52
44 0 36 -16 69 -43 86 -23 16 -26 15 -70 -15z"/>
<path d="M1743 2804 c-29 -25 -53 -52 -53 -60 0 -13 47 -60 92 -92 16 -12 21
-9 46 19 67 80 66 69 14 127 l-47 52 -52 -46z"/>
<path d="M2017 2806 c-21 -24 -37 -48 -37 -53 0 -17 76 -83 96 -83 14 0 28 16
47 56 l27 55 -20 30 c-12 16 -27 29 -35 29 -7 0 -20 2 -28 5 -8 4 -28 -11 -50
-39z"/>
<path d="M4318 2816 c-37 -13 -58 -26 -57 -36 0 -23 43 -130 52 -131 4 0 31 3
60 6 44 6 57 12 69 33 15 26 14 30 -20 90 -20 34 -39 61 -42 61 -3 -1 -31 -11
-62 -23z"/>
<path d="M5047 2803 c-53 -85 -54 -78 3 -143 66 -77 82 -77 139 -3 24 31 44
62 45 67 1 6 -24 35 -55 64 -70 65 -98 68 -132 15z"/>
<path d="M4701 2811 c-13 -3 -33 -22 -44 -42 l-21 -36 40 -62 c34 -53 43 -61
70 -61 35 0 50 10 87 62 l27 36 -46 56 c-47 57 -60 62 -113 47z"/>
<path d="M873 2790 c-13 -5 -23 -12 -23 -14 0 -3 -11 -35 -25 -71 l-24 -66 75
-34 c70 -32 78 -34 103 -21 21 11 29 26 39 72 6 32 11 58 9 59 -42 30 -127 85
-129 84 -2 0 -13 -4 -25 -9z"/>
<path d="M2918 2783 c-26 -6 -32 -45 -14 -87 19 -45 40 -46 85 -5 l33 31 -33
34 c-33 34 -38 36 -71 27z"/>
<path d="M3086 2758 l-25 -33 32 -33 c47 -48 77 -42 93 21 12 46 11 49 -9 56
-61 23 -64 23 -91 -11z"/>
<path d="M3362 2772 c-21 -16 -23 -23 -16 -70 4 -29 10 -55 14 -57 8 -5 100
23 113 35 5 4 -3 31 -17 59 -29 56 -53 65 -94 33z"/>
<path d="M2154 2718 l-26 -50 28 -29 c28 -29 66 -37 94 -19 8 5 19 32 26 59
14 63 5 77 -54 84 l-43 5 -25 -50z"/>
<path d="M2613 2747 c-9 -19 -9 -35 0 -62 l11 -37 45 7 c25 4 49 10 52 13 10
11 19 81 11 86 -4 2 -30 7 -58 11 -47 6 -51 5 -61 -18z"/>
<path d="M3221 2747 c-5 -14 -13 -40 -16 -59 -5 -29 -3 -36 17 -46 30 -16 104
-2 101 19 -7 68 -15 88 -36 94 -12 4 -30 9 -39 11 -12 4 -21 -3 -27 -19z"/>
<path d="M4148 2742 c-26 -9 -49 -20 -53 -24 -5 -5 13 -126 20 -136 1 -1 34 3
73 9 53 9 73 16 77 29 8 24 -37 134 -56 137 -8 1 -35 -6 -61 -15z"/>
<path d="M1115 2723 c-16 -9 -31 -17 -33 -18 -2 -2 -9 -28 -16 -59 l-14 -57
70 -35 69 -35 34 27 c25 19 35 34 35 54 0 16 2 34 5 42 3 7 -11 24 -32 38 -95
64 -85 60 -118 43z"/>
<path d="M2766 2725 c-12 -31 -6 -72 12 -89 18 -15 22 -15 65 4 l46 20 -13 38
c-12 35 -16 37 -58 40 -35 2 -47 -1 -52 -13z"/>
<path d="M3575 2703 c-27 -14 -52 -27 -54 -29 -10 -9 40 -94 54 -94 9 0 36 5
61 11 42 11 44 13 44 48 0 28 -7 44 -27 63 l-28 26 -50 -25z"/>
<path d="M1869 2664 c-24 -32 -38 -58 -33 -62 6 -4 31 -22 58 -40 26 -19 53
-31 61 -28 8 3 26 28 40 57 l27 52 -38 38 c-21 22 -46 39 -55 39 -9 0 -36 -25
-60 -56z"/>
<path d="M2315 2708 c-2 -7 -9 -32 -14 -56 -8 -38 -7 -44 12 -57 25 -18 31
-18 80 -4 l37 10 0 59 0 60 -55 0 c-36 0 -57 -5 -60 -12z"/>
<path d="M2460 2660 c0 -71 8 -77 71 -60 66 18 70 24 52 76 l-15 44 -54 0 -54
0 0 -60z"/>
<path d="M3968 2697 c-56 -20 -58 -22 -58 -58 0 -21 5 -50 10 -65 10 -25 13
-26 63 -20 84 11 98 17 93 35 -3 9 -10 42 -16 74 -6 31 -17 57 -23 56 -7 0
-38 -10 -69 -22z"/>
<path d="M4543 2699 c-26 -6 -47 -19 -57 -34 -15 -23 -15 -28 13 -90 l30 -65
48 0 c44 0 50 3 76 40 l27 39 -37 60 c-21 33 -42 60 -48 59 -5 0 -29 -4 -52
-9z"/>
<path d="M1353 2677 c-33 -23 -43 -43 -43 -90 0 -24 8 -31 65 -59 l65 -32 35
34 c53 51 49 85 -17 133 -29 20 -57 37 -63 36 -5 0 -24 -10 -42 -22z"/>
<path d="M1613 2662 c-33 -28 -43 -45 -43 -67 0 -26 8 -35 54 -63 30 -17 58
-32 63 -32 11 1 83 92 83 105 -1 9 -102 96 -111 95 -2 -1 -23 -18 -46 -38z"/>
<path d="M2997 2667 c-35 -30 -37 -34 -27 -63 8 -23 20 -34 47 -42 21 -6 38
-10 39 -9 1 1 11 22 24 46 l22 44 -32 28 c-17 16 -32 29 -33 29 -1 -1 -19 -15
-40 -33z"/>
<path d="M3770 2681 c-42 -17 -45 -21 -48 -58 -5 -60 21 -78 95 -67 l58 9 -2
54 c-4 84 -21 95 -103 62z"/>
<path d="M4910 2684 c-14 -4 -70 -82 -70 -98 0 -4 18 -34 40 -67 55 -80 79
-81 144 -4 l47 55 -53 60 c-50 58 -65 65 -108 54z"/>
<path d="M3430 2630 c-40 -16 -45 -22 -43 -47 5 -69 9 -73 68 -73 50 0 57 3
67 25 10 22 8 33 -10 70 -12 25 -25 45 -29 44 -5 0 -28 -8 -53 -19z"/>
<path d="M2675 2629 c-22 -5 -43 -13 -48 -18 -4 -4 4 -33 18 -64 l26 -56 50
30 c54 34 62 58 30 97 -21 24 -19 24 -76 11z"/>
<path d="M2852 2617 c-56 -28 -58 -62 -6 -102 l35 -27 26 23 c37 36 44 53 32
87 -13 39 -35 44 -87 19z"/>
<path d="M2023 2571 l-33 -60 55 -31 c72 -41 87 -35 107 40 l16 59 -33 26
c-54 40 -75 34 -112 -34z"/>
<path d="M3102 2585 c-12 -24 -19 -51 -16 -59 4 -12 103 -40 112 -31 1 1 6 25
11 54 9 59 -6 81 -55 81 -26 0 -33 -7 -52 -45z"/>
<path d="M3290 2606 c-44 -11 -45 -12 -52 -61 -4 -27 -5 -51 -2 -54 2 -3 31
-7 63 -9 44 -3 59 -1 64 10 6 16 -11 109 -22 119 -3 4 -26 1 -51 -5z"/>
<path d="M4395 2615 c-5 -2 -27 -6 -47 -10 -48 -8 -54 -30 -29 -110 l19 -60
52 0 c56 0 56 0 84 32 18 22 18 23 -9 88 -27 62 -37 71 -70 60z"/>
<path d="M764 2592 c-11 -6 -54 -135 -54 -160 0 -6 36 -22 79 -37 100 -33 114
-28 130 51 6 32 11 64 11 71 0 10 -137 84 -153 83 -1 0 -7 -4 -13 -8z"/>
<path d="M2223 2573 c-17 -3 -26 -17 -38 -55 -8 -29 -15 -55 -15 -60 0 -5 19
-18 43 -29 34 -16 47 -18 70 -10 25 10 27 14 27 70 0 51 -3 62 -22 75 -23 16
-26 17 -65 9z"/>
<path d="M2527 2568 c-38 -10 -38 -10 -32 -52 14 -91 32 -102 100 -61 25 14
45 28 45 30 0 3 -10 25 -22 50 -23 48 -29 49 -91 33z"/>
<path d="M1761 2521 c-60 -72 -57 -82 41 -125 l56 -25 31 59 c17 32 31 60 31
62 0 6 -104 78 -112 78 -4 0 -25 -22 -47 -49z"/>
<path d="M3618 2557 c-60 -13 -75 -41 -51 -92 17 -36 17 -36 77 -33 l60 3 9
42 c7 35 5 48 -10 68 -20 27 -18 27 -85 12z"/>
<path d="M2379 2553 c-30 -5 -39 -25 -39 -89 0 -38 2 -41 36 -52 29 -9 43 -8
65 3 38 20 39 24 26 86 -13 58 -22 63 -88 52z"/>
<path d="M4210 2555 c-8 -2 -32 -6 -53 -10 l-38 -6 6 -47 c14 -109 9 -102 79
-102 48 0 67 4 79 18 15 16 15 23 -4 85 -20 67 -24 71 -69 62z"/>
<path d="M4696 2526 c-14 -19 -26 -40 -26 -46 0 -6 13 -37 30 -70 26 -51 34
-59 62 -62 28 -3 41 4 80 41 l46 44 -41 63 c-40 61 -44 64 -83 64 -36 0 -45
-5 -68 -34z"/>
<path d="M1003 2532 c-18 -14 -43 -97 -43 -143 0 -4 34 -19 75 -32 l75 -26 26
23 c20 17 28 34 31 73 l5 52 -71 35 c-39 20 -72 36 -73 36 -2 0 -13 -8 -25
-18z"/>
<path d="M2931 2499 c-19 -22 -32 -41 -30 -43 27 -23 95 -66 103 -66 15 1 57
97 50 115 -5 13 -56 36 -78 34 -6 0 -26 -18 -45 -40z"/>
<path d="M5066 2486 c-25 -29 -46 -56 -46 -59 0 -18 94 -137 108 -137 9 1 45
26 80 58 l62 57 -61 68 c-33 37 -69 67 -79 67 -10 0 -39 -24 -64 -54z"/>
<path d="M1254 2502 c-26 -22 -33 -37 -38 -78 l-6 -52 71 -26 72 -27 34 33
c26 25 33 40 33 69 0 35 -3 38 -68 72 l-67 36 -31 -27z"/>
<path d="M1502 2497 c-25 -26 -32 -41 -32 -72 0 -40 1 -40 65 -67 l66 -26 35
46 c19 25 34 55 32 66 -3 19 -99 86 -124 86 -5 0 -24 -15 -42 -33z"/>
<path d="M3807 2521 c-46 -10 -47 -10 -58 -62 -14 -62 5 -79 88 -79 l64 0 -3
73 c-3 69 -4 72 -28 74 -14 0 -42 -2 -63 -6z"/>
<path d="M4030 2525 c-8 -2 -32 -6 -52 -10 l-38 -6 0 -70 0 -70 78 3 77 3 -3
55 c-4 99 -9 106 -62 95z"/>
<path d="M2733 2494 l-43 -25 33 -49 c18 -28 40 -50 49 -50 17 0 87 66 88 83
0 10 -63 66 -75 67 -5 0 -29 -12 -52 -26z"/>
<path d="M1924 2414 c-21 -37 -33 -69 -28 -74 10 -9 136 -61 139 -57 5 6 45
131 42 133 -10 8 -105 64 -110 64 -3 0 -23 -30 -43 -66z"/>
<path d="M3064 2431 l-21 -48 55 -27 c49 -24 57 -26 70 -12 9 8 18 38 22 65
l6 50 -48 11 c-27 5 -52 10 -56 10 -4 0 -17 -22 -28 -49z"/>
<path d="M3393 2465 c-5 -16 1 -93 9 -101 2 -2 29 -6 59 -10 54 -6 54 -6 70
27 14 29 14 39 2 67 -13 31 -15 32 -73 32 -46 0 -62 -4 -67 -15z"/>
<path d="M3226 2435 c-3 -11 -6 -36 -6 -56 0 -33 3 -37 41 -48 23 -7 47 -15
54 -17 23 -9 48 44 40 91 l-6 43 -59 4 c-52 3 -60 1 -64 -17z"/>
<path d="M4511 2434 c-26 -33 -26 -35 1 -111 l23 -63 45 0 c39 0 51 5 80 35
l34 35 -32 65 -32 65 -49 0 c-42 0 -53 -4 -70 -26z"/>
<path d="M2610 2424 c-40 -28 -39 -24 -21 -86 13 -46 15 -48 50 -48 28 0 44 7
66 29 l28 30 -33 50 c-17 28 -37 51 -44 51 -6 -1 -27 -12 -46 -26z"/>
<path d="M2848 2386 l-36 -42 40 -42 c50 -55 79 -50 108 16 11 25 19 46 18 47
-2 1 -24 16 -49 33 l-46 31 -35 -43z"/>
<path d="M2111 2393 c-5 -10 -16 -41 -24 -70 l-15 -51 66 -21 c62 -19 68 -19
80 -4 6 9 12 31 12 47 0 17 3 41 6 53 5 18 -1 25 -35 42 -49 26 -77 27 -90 4z"/>
<path d="M1672 2354 c-24 -33 -32 -53 -30 -77 3 -29 8 -33 58 -49 30 -9 62
-17 71 -17 16 -1 69 84 69 111 0 10 -119 80 -133 78 -1 -1 -17 -21 -35 -46z"/>
<path d="M2456 2384 c-27 -15 -28 -19 -24 -71 3 -32 11 -59 19 -64 26 -16 82
-10 105 12 l22 20 -20 52 c-27 71 -46 81 -102 51z"/>
<path d="M3566 2363 c-27 -61 -12 -87 60 -101 31 -7 60 -12 64 -12 4 0 13 25
20 56 18 76 10 88 -67 92 l-60 3 -17 -38z"/>
<path d="M4881 2356 l-43 -43 36 -70 c46 -93 61 -96 137 -35 32 26 58 51 58
55 1 5 -20 37 -45 73 -58 81 -80 84 -143 20z"/>
<path d="M2293 2378 c-13 -6 -23 -19 -23 -28 0 -10 -3 -38 -6 -63 l-6 -45 55
-13 c75 -16 87 -6 87 72 0 58 0 59 -36 74 -42 17 -42 17 -71 3z"/>
<path d="M4318 2368 c-13 -19 -13 -31 -1 -87 7 -36 15 -66 17 -68 2 -2 25 -6
52 -9 43 -4 53 -1 78 22 l29 26 -22 69 -22 69 -58 0 c-49 0 -61 -4 -73 -22z"/>
<path d="M1422 2317 c-27 -28 -32 -41 -32 -80 0 -26 2 -47 5 -47 3 0 36 -9 74
-19 l69 -19 30 43 c45 64 36 90 -45 126 -36 16 -66 29 -67 29 -1 0 -16 -15
-34 -33z"/>
<path d="M2992 2306 l-21 -45 40 -35 c21 -20 45 -36 52 -36 28 1 58 37 64 76
5 38 4 39 -41 62 -26 12 -52 22 -59 22 -7 0 -23 -20 -35 -44z"/>
<path d="M3746 2296 c-20 -68 -20 -74 2 -80 46 -13 133 -29 136 -25 3 2 8 39
12 82 l7 77 -71 0 -71 0 -15 -54z"/>
<path d="M4132 2338 c-13 -13 -15 -43 -6 -110 l6 -45 55 -10 c50 -9 58 -8 80
11 25 22 25 22 11 91 l-14 69 -60 3 c-37 2 -64 -1 -72 -9z"/>
<path d="M918 2323 c-9 -11 -19 -48 -23 -89 l-7 -71 72 -17 c40 -9 78 -16 85
-16 26 0 43 36 47 97 l3 62 -72 26 c-85 30 -86 30 -105 8z"/>
<path d="M1168 2309 c-25 -19 -28 -27 -28 -83 l0 -62 76 -18 76 -18 24 23 c19
18 24 32 24 75 l0 52 -65 26 c-77 31 -73 31 -107 5z"/>
<path d="M2731 2296 l-33 -34 27 -52 c22 -44 30 -51 48 -46 12 3 30 6 40 6 10
0 24 15 34 35 l16 34 -37 46 c-21 25 -43 45 -50 45 -7 0 -27 -15 -45 -34z"/>
<path d="M3374 2308 c-15 -17 -19 -32 -15 -57 5 -31 12 -37 61 -57 l55 -22 27
46 c21 37 24 49 16 68 -12 25 -20 29 -83 39 -34 5 -44 2 -61 -17z"/>
<path d="M3939 2313 c0 -10 -4 -42 -8 -71 -7 -51 -7 -53 18 -58 14 -3 43 -10
63 -15 72 -18 87 6 72 115 l-7 46 -68 0 c-59 0 -69 -3 -70 -17z"/>
<path d="M3187 2305 c-9 -6 -19 -29 -23 -51 -6 -39 -5 -40 44 -71 l50 -31 32
33 c25 25 31 39 28 65 -3 30 -7 34 -59 50 -44 13 -60 14 -72 5z"/>
<path d="M1850 2241 c-39 -78 -33 -95 38 -110 31 -7 64 -14 72 -17 12 -3 21
13 38 63 12 37 20 68 19 69 -1 1 -32 14 -70 28 l-67 25 -30 -58z"/>
<path d="M4688 2255 l-37 -35 25 -67 c14 -37 31 -71 37 -75 26 -16 62 -6 106
29 25 20 47 38 49 39 2 1 -13 34 -32 73 -35 69 -37 71 -74 71 -28 0 -46 -9
-74 -35z"/>
<path d="M2580 2225 c-22 -23 -22 -27 -10 -72 7 -26 16 -52 21 -57 4 -4 29 -5
57 -1 37 5 52 12 62 30 11 20 9 30 -15 74 -25 45 -32 51 -60 51 -21 0 -40 -9
-55 -25z"/>
<path d="M3536 2201 c-38 -59 -34 -76 21 -101 88 -39 87 -39 113 29 12 33 20
67 17 74 -3 8 -23 17 -44 21 -21 3 -48 9 -60 12 -17 5 -27 -2 -47 -35z"/>
<path d="M2036 2165 c-10 -35 -16 -71 -13 -79 4 -9 30 -16 77 -21 39 -4 73 -6
75 -4 1 2 6 34 10 70 l7 66 -59 16 c-33 10 -64 17 -69 17 -5 0 -18 -29 -28
-65z"/>
<path d="M2891 2201 c-28 -38 -27 -46 11 -95 17 -22 33 -43 34 -45 2 -2 22 7
45 20 28 16 45 33 50 51 6 24 2 33 -34 63 -50 43 -79 45 -106 6z"/>
<path d="M5051 2178 l-61 -51 42 -78 c23 -44 48 -79 55 -79 15 0 152 91 153
102 0 14 -92 138 -110 148 -15 8 -30 0 -79 -42z"/>
<path d="M1606 2169 c-25 -37 -27 -47 -20 -83 l9 -41 70 -11 c39 -7 71 -11 71
-10 1 0 13 24 27 51 33 68 25 86 -49 109 -33 10 -64 20 -70 23 -6 2 -23 -15
-38 -38z"/>
<path d="M2418 2199 c-14 -7 -18 -23 -18 -64 0 -82 3 -85 76 -85 50 0 66 4 71
16 6 17 -14 121 -25 128 -19 11 -89 15 -104 5z"/>
<path d="M4492 2183 l-30 -28 17 -70 c16 -68 17 -70 53 -79 32 -8 42 -6 78 18
23 15 43 33 46 39 2 7 -6 42 -20 77 l-24 65 -45 3 c-38 3 -50 -1 -75 -25z"/>
<path d="M2237 2193 c-10 -15 -27 -135 -21 -144 3 -5 39 -9 80 -9 l74 0 0 48
c0 58 -8 89 -25 96 -29 11 -103 17 -108 9z"/>
<path d="M3103 2165 c-11 -8 -25 -28 -31 -44 -9 -26 -7 -32 21 -58 64 -59 62
-58 106 -21 56 45 55 74 -3 111 -49 31 -63 33 -93 12z"/>
<path d="M3317 2152 c-42 -43 -36 -71 24 -110 27 -18 54 -30 59 -27 21 13 71
97 66 111 -5 14 -86 54 -110 54 -7 0 -24 -13 -39 -28z"/>
<path d="M3723 2163 c-3 -10 -14 -39 -24 -66 l-19 -47 56 -25 c92 -41 99 -38
116 50 l15 75 -26 6 c-14 3 -42 10 -61 15 -47 12 -50 12 -57 -8z"/>
<path d="M4294 2142 c-19 -16 -21 -26 -16 -90 l5 -71 42 -14 c41 -14 45 -14
84 10 45 26 46 32 27 113 -10 44 -17 56 -37 61 -43 12 -84 9 -105 -9z"/>
<path d="M1356 2120 c-25 -31 -26 -38 -10 -117 4 -22 15 -26 105 -38 45 -6 47
-5 71 32 22 34 24 42 14 77 -11 37 -14 40 -76 57 -82 23 -74 24 -104 -11z"/>
<path d="M3907 2143 c-7 -12 -30 -143 -26 -147 2 -1 27 -12 56 -23 43 -18 57
-19 76 -10 22 10 25 20 30 82 3 44 1 72 -6 77 -6 3 -30 9 -55 13 -24 4 -50 9
-57 11 -7 3 -15 2 -18 -3z"/>
<path d="M2794 2128 c-60 -13 -70 -40 -38 -109 14 -29 26 -55 28 -56 9 -10
116 42 121 58 5 16 -27 72 -64 110 -3 3 -24 2 -47 -3z"/>
<path d="M4097 2125 c-13 -12 -17 -34 -17 -84 l0 -67 50 -18 c49 -18 50 -17
83 3 l33 20 -7 67 c-7 66 -17 84 -50 84 -9 0 -30 3 -46 6 -21 4 -35 1 -46 -11z"/>
<path d="M862 2107 c-5 -6 -13 -49 -16 -94 -8 -94 -16 -87 104 -98 90 -8 101
4 92 99 l-7 69 -60 14 c-33 7 -70 15 -81 18 -12 3 -26 -1 -32 -8z"/>
<path d="M1106 2101 c-14 -15 -17 -34 -14 -90 l3 -70 55 -6 c30 -4 67 -8 81
-11 21 -4 31 1 48 24 17 25 19 36 12 81 -4 28 -10 53 -12 55 -5 4 -135 36
-147 36 -5 0 -17 -9 -26 -19z"/>
<path d="M4851 2070 c-28 -22 -51 -44 -51 -47 0 -24 57 -146 72 -154 14 -7 33
0 85 33 38 23 69 43 71 44 5 3 -47 104 -70 137 -26 37 -47 34 -107 -13z"/>
<path d="M1800 2051 c-20 -44 -21 -54 -10 -80 8 -21 19 -31 34 -31 11 0 44 -3
72 -6 l50 -6 19 61 c22 74 16 84 -62 100 -79 16 -77 16 -103 -38z"/>
<path d="M3463 2032 c-18 -26 -33 -52 -33 -57 1 -18 120 -89 131 -78 5 5 23
38 39 72 l29 62 -56 24 c-30 14 -61 25 -67 25 -6 0 -26 -21 -43 -48z"/>
<path d="M2993 2047 c-55 -27 -59 -49 -20 -106 18 -25 35 -50 39 -55 10 -15
118 62 118 84 0 10 -21 36 -47 58 l-48 39 -42 -20z"/>
<path d="M2620 2053 c-45 -9 -49 -18 -32 -91 9 -37 17 -69 18 -71 6 -8 136 33
140 44 3 6 -7 37 -21 68 -26 60 -32 63 -105 50z"/>
<path d="M3222 2012 c-23 -20 -42 -44 -42 -52 0 -23 98 -116 109 -105 34 37
91 107 91 113 0 4 -15 16 -33 28 -17 11 -43 28 -57 37 -24 15 -26 14 -68 -21z"/>
<path d="M2006 1979 c-13 -46 -14 -62 -4 -84 11 -26 14 -26 80 -23 37 3 70 7
73 9 3 3 9 34 13 68 10 71 15 67 -80 79 l-66 8 -16 -57z"/>
<path d="M2461 2013 l-64 -4 7 -72 c4 -39 10 -75 15 -80 8 -8 130 10 143 22 9
7 -21 142 -30 139 -4 -1 -36 -3 -71 -5z"/>
<path d="M4646 1990 c-21 -16 -41 -32 -44 -34 -2 -3 4 -38 14 -77 24 -91 42
-103 112 -70 91 43 89 40 56 125 -28 73 -40 86 -84 86 -8 0 -32 -14 -54 -30z"/>
<path d="M1564 1969 c-23 -36 -23 -39 -8 -88 l15 -51 72 0 73 0 22 46 c22 45
22 47 4 77 -16 28 -26 33 -86 43 l-68 11 -24 -38z"/>
<path d="M2215 1995 c-2 -5 -6 -36 -9 -69 -8 -74 2 -88 58 -80 110 14 106 12
106 47 0 18 -3 49 -6 69 l-6 36 -70 4 c-42 2 -72 -1 -73 -7z"/>
<path d="M3631 1943 c-25 -52 -30 -68 -19 -75 113 -76 136 -74 161 11 9 33 17
65 17 70 0 6 -20 19 -44 30 -83 36 -78 38 -115 -36z"/>
<path d="M2853 1946 c-28 -12 -55 -24 -58 -28 -5 -5 47 -133 59 -145 4 -4 124
66 131 77 3 5 -73 122 -78 119 -1 0 -25 -11 -54 -23z"/>
<path d="M3844 1952 c-11 -7 -59 -141 -53 -146 2 -2 25 -15 50 -30 40 -23 50
-25 77 -15 34 12 38 19 47 99 l7 55 -53 20 c-30 11 -56 21 -59 22 -3 2 -10 -1
-16 -5z"/>
<path d="M4437 1937 l-38 -22 7 -65 c8 -81 16 -97 53 -105 32 -7 131 36 131
56 0 19 -31 134 -38 141 -20 19 -78 17 -115 -5z"/>
<path d="M1321 1912 c-16 -24 -17 -34 -8 -89 l11 -63 83 0 83 0 16 33 c13 27
13 38 2 77 -15 48 -19 50 -125 63 -38 4 -45 2 -62 -21z"/>
<path d="M3359 1879 l-42 -50 49 -50 c26 -27 56 -49 65 -49 16 0 89 105 89
126 0 10 -95 74 -109 74 -5 0 -28 -23 -52 -51z"/>
<path d="M4033 1918 c-15 -7 -23 -23 -27 -57 -4 -25 -9 -57 -12 -71 -4 -21 2
-29 38 -48 40 -22 46 -22 83 -9 l40 14 3 74 3 75 -48 17 c-54 19 -51 19 -80 5z"/>
<path d="M4233 1913 c-33 -16 -33 -17 -33 -90 l0 -73 37 -18 c36 -19 37 -19
85 1 53 22 54 24 42 123 -6 49 -8 52 -44 63 -46 14 -47 13 -87 -6z"/>
<path d="M3105 1889 c-22 -17 -46 -34 -54 -38 -11 -7 -4 -22 30 -70 23 -33 48
-61 54 -61 6 0 34 24 63 53 l52 53 -48 47 c-26 26 -50 47 -52 47 -3 0 -23 -14
-45 -31z"/>
<path d="M1076 1881 c-10 -12 -12 -35 -7 -93 3 -42 9 -78 11 -80 3 -2 43 -2
91 0 104 4 111 11 97 97 -6 33 -13 63 -17 67 -3 3 -41 10 -84 15 -65 8 -79 7
-91 -6z"/>
<path d="M1781 1855 l-21 -47 21 -40 21 -41 51 7 c29 3 61 6 72 6 16 0 24 10
33 45 23 86 11 101 -85 110 l-71 7 -21 -47z"/>
<path d="M2682 1868 c-40 -12 -62 -24 -59 -31 2 -7 10 -38 17 -69 9 -39 19
-59 31 -63 17 -6 139 48 139 61 0 13 -53 124 -59 123 -3 0 -35 -10 -69 -21z"/>
<path d="M2044 1832 c-28 -3 -32 -7 -42 -53 -11 -46 -10 -54 9 -80 23 -33 21
-33 105 -18 l62 11 4 56 c6 89 -6 97 -138 84z"/>
<path d="M2493 1824 l-61 -15 5 -62 c4 -44 11 -67 24 -79 18 -15 23 -15 81 8
33 13 63 26 65 28 11 10 -24 131 -38 133 -8 1 -42 -5 -76 -13z"/>
<path d="M3546 1818 c-7 -13 -25 -42 -40 -65 l-25 -42 47 -39 c63 -53 95 -49
123 15 36 84 36 86 -21 121 -61 38 -65 39 -84 10z"/>
<path d="M2280 1811 l-45 -6 -9 -58 c-9 -54 -8 -60 15 -82 l24 -25 69 21 68
21 -7 61 c-3 34 -9 65 -11 69 -6 9 -34 8 -104 -1z"/>
<path d="M2937 1774 l-57 -36 32 -61 c19 -35 41 -63 51 -65 10 -2 41 16 72 43
l55 46 -38 54 c-20 30 -41 54 -47 54 -5 0 -36 -16 -68 -35z"/>
<path d="M4775 1779 c-27 -15 -54 -30 -58 -32 -13 -4 35 -168 51 -174 12 -5
128 36 161 56 9 6 3 30 -21 92 -40 99 -53 105 -133 58z"/>
<path d="M3231 1746 c-57 -58 -57 -56 -8 -118 41 -53 72 -51 115 7 18 25 35
51 37 58 3 7 -16 34 -43 60 l-48 47 -53 -54z"/>
<path d="M1548 1760 c-17 -29 -17 -33 3 -85 23 -61 23 -61 125 -49 49 6 52 8
64 45 11 34 11 44 -5 79 l-18 40 -76 0 c-74 0 -76 -1 -93 -30z"/>
<path d="M3738 1763 c-9 -2 -28 -33 -43 -70 l-26 -66 23 -24 c34 -37 55 -45
98 -38 38 6 38 7 55 76 10 39 16 71 14 73 -11 9 -96 56 -100 55 -2 -1 -11 -3
-21 -6z"/>
<path d="M4556 1718 c-49 -25 -57 -33 -53 -51 3 -12 9 -48 12 -80 10 -80 25
-86 118 -51 40 15 73 28 75 29 1 1 -8 39 -20 84 -29 103 -46 112 -132 69z"/>
<path d="M2771 1699 c-36 -16 -66 -31 -68 -33 -2 -2 4 -30 13 -62 12 -45 22
-62 41 -71 23 -11 31 -8 84 28 33 22 59 42 59 45 0 6 -60 124 -63 124 -1 -1
-31 -14 -66 -31z"/>
<path d="M3923 1710 c-22 -9 -38 -49 -48 -120 -4 -30 -1 -38 25 -58 25 -19 37
-22 73 -17 24 4 48 10 54 13 6 4 13 39 17 77 l7 71 -39 22 c-43 24 -55 25 -89
12z"/>
<path d="M1310 1689 c-9 -16 -8 -37 5 -91 l18 -70 71 7 c39 4 79 11 88 16 27
14 32 53 13 109 l-17 50 -83 0 c-75 0 -85 -2 -95 -21z"/>
<path d="M4337 1688 l-49 -21 6 -51 c3 -28 6 -63 6 -77 0 -17 9 -32 23 -42 20
-13 29 -12 87 5 36 11 66 21 68 23 1 1 -3 37 -9 79 -10 69 -14 78 -40 91 -34
18 -33 18 -92 -7z"/>
<path d="M1839 1693 c-32 -4 -38 -9 -52 -43 -14 -37 -14 -40 11 -82 14 -23 26
-44 28 -46 4 -6 129 21 141 30 6 5 14 27 18 48 5 32 2 46 -15 70 -22 31 -33
33 -131 23z"/>
<path d="M4130 1686 c-34 -12 -35 -14 -44 -86 l-9 -73 29 -24 c16 -12 36 -21
44 -18 8 2 34 9 58 15 l42 11 0 78 0 77 -35 17 c-41 20 -39 19 -85 3z"/>
<path d="M3374 1621 l-42 -58 32 -41 c22 -29 39 -42 59 -43 15 -1 32 -2 39 -3
6 -1 27 27 46 62 l34 62 -43 40 c-24 21 -53 39 -64 39 -13 0 -34 -20 -61 -58z"/>
<path d="M2563 1643 l-63 -25 0 -53 c0 -49 3 -56 32 -76 l31 -23 64 34 c44 24
62 39 59 50 -3 8 -10 34 -16 57 -15 59 -32 65 -107 36z"/>
<path d="M3059 1624 l-56 -45 28 -53 c23 -42 36 -55 59 -60 26 -5 35 0 68 35
57 64 57 64 17 119 -20 28 -42 50 -48 50 -7 0 -37 -21 -68 -46z"/>
<path d="M1066 1652 c-3 -5 0 -50 6 -101 11 -86 13 -92 32 -87 12 2 51 8 88
11 38 4 73 13 79 21 12 15 8 57 -11 127 l-11 37 -89 0 c-49 0 -91 -4 -94 -8z"/>
<path d="M2093 1637 c-50 -9 -52 -11 -62 -54 -11 -42 -10 -46 20 -84 17 -22
37 -38 43 -36 6 2 36 12 68 22 l56 18 4 51 c4 41 0 56 -16 74 -21 24 -33 25
-113 9z"/>
<path d="M2335 1621 l-60 -18 -2 -54 c-2 -50 0 -56 28 -78 l31 -24 61 26 62
25 -3 58 c-2 40 -8 61 -20 70 -21 16 -23 16 -97 -5z"/>
<path d="M1650 1583 c-63 -6 -76 -12 -88 -37 -9 -21 -7 -36 14 -88 15 -35 27
-64 28 -65 3 -3 143 34 154 41 24 15 23 62 -3 109 -28 49 -26 48 -105 40z"/>
<path d="M3590 1584 c-8 -3 -30 -32 -48 -65 l-34 -61 30 -36 c27 -34 34 -37
78 -36 l49 1 24 68 25 68 -40 33 c-37 32 -51 37 -84 28z"/>
<path d="M2875 1538 c-22 -16 -46 -33 -54 -37 -11 -7 -11 -16 -1 -59 12 -44
18 -53 52 -68 l39 -18 52 52 51 51 -23 50 c-15 30 -32 52 -45 55 -28 8 -26 9
-71 -26z"/>
<path d="M3196 1485 l-47 -55 26 -45 c15 -25 33 -45 40 -45 7 0 25 -2 41 -5
27 -6 32 -1 68 55 l38 60 -37 45 c-49 61 -70 59 -129 -10z"/>
<path d="M3774 1513 c-16 -3 -28 -21 -46 -73 l-25 -69 29 -28 c26 -25 36 -28
81 -25 29 2 55 9 58 14 4 6 12 38 19 72 l12 60 -31 28 c-30 27 -49 31 -97 21z"/>
<path d="M1906 1492 c-61 -15 -71 -21 -82 -47 -11 -28 -9 -35 22 -87 l35 -57
72 26 c40 14 73 27 73 27 1 1 5 19 8 41 6 35 3 44 -26 77 l-33 36 -69 -16z"/>
<path d="M1425 1493 c-72 -8 -93 -14 -99 -28 -3 -8 5 -49 18 -92 27 -87 19
-84 126 -58 90 22 96 35 62 122 -27 68 -25 66 -107 56z"/>
<path d="M2644 1465 l-61 -35 7 -45 c7 -44 19 -59 66 -86 19 -10 29 -6 78 31
31 23 56 46 56 49 0 32 -35 100 -56 110 -30 13 -18 17 -90 -24z"/>
<path d="M4025 1475 c-5 -2 -26 -6 -46 -9 -36 -6 -36 -7 -51 -81 -15 -74 -15
-75 8 -96 20 -19 31 -21 84 -16 34 3 64 7 66 10 3 3 8 38 11 79 5 72 5 75 -22
96 -28 22 -31 23 -50 17z"/>
<path d="M4426 1457 l-69 -21 6 -84 c3 -46 10 -89 15 -94 8 -8 35 -6 93 5 45
9 84 18 85 20 4 3 -12 113 -21 154 -9 37 -34 42 -109 20z"/>
<path d="M2150 1440 c-41 -13 -56 -23 -61 -41 -12 -43 -9 -54 29 -98 l37 -43
68 30 67 31 0 48 c0 43 -4 52 -30 71 -34 26 -37 26 -110 2z"/>
<path d="M2398 1432 c-57 -26 -58 -27 -58 -68 0 -37 5 -46 42 -77 l41 -35 61
38 c61 37 61 37 58 81 -2 32 -10 50 -28 67 -31 27 -44 27 -116 -6z"/>
<path d="M4194 1448 c-47 -12 -54 -27 -54 -121 0 -76 13 -85 105 -73 l75 9 0
83 c0 74 -2 84 -22 98 -25 18 -44 18 -104 4z"/>
<path d="M2992 1378 l-52 -50 12 -40 c10 -34 19 -43 56 -59 24 -11 47 -19 50
-19 4 1 27 26 51 56 40 50 42 56 32 82 -19 43 -37 62 -68 71 -26 8 -34 4 -81
-41z"/>
<path d="M3357 1369 l-38 -62 18 -35 c22 -41 17 -38 78 -46 l50 -7 33 66 32
66 -26 34 c-15 19 -32 35 -39 35 -7 0 -25 2 -41 5 -27 6 -32 1 -67 -56z"/>
<path d="M1687 1367 c-96 -24 -101 -35 -57 -130 18 -37 35 -67 38 -67 4 0 40
13 81 28 94 34 103 55 59 128 -17 27 -33 52 -37 55 -3 3 -41 -3 -84 -14z"/>
<path d="M2757 1298 c-55 -40 -57 -43 -51 -77 9 -47 7 -45 61 -76 l47 -26 53
53 53 53 -12 39 c-11 36 -55 76 -83 76 -6 0 -37 -19 -68 -42z"/>
<path d="M3539 1274 c-34 -74 -34 -82 -11 -110 13 -16 33 -23 78 -28 l62 -7
25 75 25 74 -29 28 c-21 20 -40 28 -75 30 l-46 2 -29 -64z"/>
<path d="M1961 1286 c-90 -31 -97 -53 -41 -135 l40 -61 74 37 c65 32 75 40 79
67 3 24 -3 40 -32 73 -19 24 -40 43 -46 42 -5 0 -39 -11 -74 -23z"/>
<path d="M3139 1241 c-46 -57 -46 -57 -32 -92 12 -30 22 -38 67 -52 29 -9 55
-17 58 -17 7 0 78 116 78 128 0 28 -37 72 -65 77 -16 4 -37 8 -45 10 -9 2 -34
-21 -61 -54z"/>
<path d="M2505 1254 c-33 -20 -61 -37 -62 -38 -1 -1 0 -19 4 -39 4 -28 17 -46
50 -73 l44 -36 55 43 c67 52 67 51 59 98 -5 31 -14 42 -44 60 -22 11 -40 21
-42 21 -2 0 -31 -16 -64 -36z"/>
<path d="M2233 1247 c-58 -29 -63 -34 -63 -63 0 -24 11 -45 44 -80 l43 -48 67
43 c62 41 66 46 66 81 0 31 -6 42 -39 68 -22 18 -43 32 -48 31 -4 0 -36 -14
-70 -32z"/>
<path d="M3775 1263 c-15 -3 -25 -22 -42 -75 -19 -64 -20 -73 -7 -94 13 -19
26 -23 86 -26 38 -2 72 0 74 3 2 4 11 40 19 80 15 71 15 73 -7 96 -21 23 -64
28 -123 16z"/>
<path d="M4009 1223 l-46 -4 -17 -82 c-13 -65 -14 -84 -4 -93 7 -7 50 -14 94
-17 l82 -4 6 51 c14 120 2 158 -49 154 -11 -1 -41 -3 -66 -5z"/>
<path d="M4248 1207 l-67 -10 -6 -61 c-10 -89 -4 -131 18 -130 9 0 51 1 92 2
l75 2 0 95 c0 83 -2 96 -19 105 -11 5 -21 9 -23 8 -2 0 -33 -6 -70 -11z"/>
<path d="M2897 1141 c-50 -51 -54 -59 -46 -86 7 -24 21 -37 64 -58 30 -15 57
-27 59 -27 1 0 24 27 50 61 47 60 47 61 33 96 -11 28 -24 39 -60 53 l-45 17
-55 -56z"/>
<path d="M3312 1121 c-38 -61 -40 -67 -26 -92 10 -20 28 -32 68 -43 75 -22 79
-21 99 27 11 23 25 56 32 72 19 44 -12 80 -81 93 l-51 9 -41 -66z"/>
<path d="M1753 1152 c-40 -15 -75 -33 -78 -40 -3 -8 13 -49 36 -93 l41 -79 82
43 c56 29 82 48 84 62 2 19 -72 136 -86 134 -4 0 -40 -12 -79 -27z"/>
<path d="M2628 1083 c-80 -63 -79 -85 3 -143 l61 -43 55 56 c52 52 55 57 49
91 -6 31 -14 40 -56 61 -27 14 -51 25 -52 25 -2 -1 -29 -22 -60 -47z"/>
<path d="M2049 1085 c-38 -19 -69 -42 -71 -53 -4 -12 12 -41 43 -83 26 -35 50
-64 54 -64 3 0 37 20 75 45 53 34 70 51 70 68 0 24 -77 122 -95 122 -5 -1 -40
-16 -76 -35z"/>
<path d="M2348 1063 c-86 -55 -87 -70 -14 -142 l55 -54 66 54 c61 49 66 56 61
83 -4 16 -7 30 -9 31 -1 1 -22 17 -47 37 l-45 35 -67 -44z"/>
<path d="M3503 1020 c-45 -100 -34 -114 104 -136 l42 -6 10 40 c6 22 18 58 25
79 12 35 12 41 -5 61 -14 18 -32 24 -81 28 l-63 6 -32 -72z"/>
<path d="M3057 1002 c-61 -78 -57 -99 26 -135 34 -15 67 -27 72 -27 6 0 29 31
51 68 38 63 40 71 28 94 -12 24 -84 58 -120 58 -7 0 -33 -26 -57 -58z"/>
<path d="M3737 1013 c-2 -5 -14 -41 -26 -81 -26 -88 -22 -97 52 -106 28 -4 66
-9 83 -12 l31 -6 17 88 c21 114 14 124 -85 124 -37 0 -70 -3 -72 -7z"/>
<path d="M2779 923 c-70 -72 -68 -87 19 -142 34 -23 64 -41 66 -41 2 0 27 31
55 68 63 86 61 102 -20 143 -32 16 -60 29 -62 29 -1 0 -28 -26 -58 -57z"/>
<path d="M3241 880 c-33 -55 -40 -74 -32 -88 11 -21 151 -76 162 -65 4 5 21
41 38 80 39 90 34 103 -48 126 -33 9 -65 17 -70 17 -5 0 -27 -31 -50 -70z"/>
<path d="M2173 891 c-40 -25 -73 -53 -73 -61 0 -9 25 -46 56 -83 50 -60 58
-66 73 -54 9 7 40 33 69 57 33 27 52 51 52 64 0 13 -22 43 -52 72 l-53 51 -72
-46z"/>
<path d="M2485 888 c-33 -28 -61 -60 -63 -72 -2 -15 14 -36 59 -74 34 -29 64
-51 68 -50 3 2 32 31 64 65 45 47 57 66 52 82 -5 16 -61 64 -110 93 -5 3 -37
-17 -70 -44z"/>
<path d="M2952 778 c-30 -38 -51 -75 -49 -82 5 -14 155 -101 161 -95 25 31 87
153 84 166 -3 17 -36 37 -113 68 -30 12 -30 12 -83 -57z"/>
</g>
</svg>
